<svg width="276" height="57" viewBox="0 0 276 57" fill="none" xmlns="http://www.w3.org/2000/svg">
<g clip-path="url(#clip0_1636_1334)">
<g clip-path="url(#clip1_1636_1334)">
<path d="M6.39275 27.191C6.09654 26.647 5.92606 26.0821 5.72662 25.5302C5.65593 25.3345 5.55031 25.2466 5.35315 25.2138C3.65939 24.9325 2.80251 23.8009 2.42934 22.2223C2.04255 20.5861 2.13838 18.9414 2.55301 17.3308C2.81112 16.3282 3.34673 15.4675 4.35357 15.03C4.55374 14.943 4.60468 14.8058 4.6324 14.6231C4.90479 12.8277 5.5816 11.1846 6.49304 9.63111C7.48035 7.94833 8.62441 6.38176 10.0754 5.07747C11.6583 3.65464 13.4353 2.52135 15.4073 1.7126C16.5714 1.23516 17.754 0.812571 18.9844 0.543976C21.0032 0.103233 23.0381 -0.0543761 25.1054 0.112224C26.5548 0.229032 27.98 0.474642 29.3667 0.876216C31.2501 1.42163 33.0376 2.20454 34.6829 3.31102C36.1253 4.28102 37.4092 5.41838 38.5447 6.72956C39.7351 8.10416 40.6966 9.62426 41.435 11.2965C41.9122 12.377 42.3107 13.472 42.505 14.6403C42.5309 14.7961 42.569 14.9597 42.7603 15.035C43.9127 15.4889 44.3912 16.4703 44.6827 17.5815C44.9171 18.4749 44.9986 19.3898 44.9868 20.3129C44.9706 21.5812 44.783 22.8078 44.0346 23.8728C43.5138 24.6139 42.8142 25.0991 41.9007 25.2096C41.6493 25.2401 41.5342 25.3432 41.4621 25.5919C41.1976 26.5034 40.8376 27.3749 40.317 28.1744C40.1889 28.3712 40.1127 28.5712 40.3906 28.7566C41.5197 29.5098 41.727 30.6727 41.735 31.9152C41.7422 33.0371 41.8137 34.1586 41.7542 35.281C41.7477 35.4044 41.8281 35.4977 41.8984 35.5868C42.6374 36.5231 43.2563 37.5333 43.6937 38.6461C44.2264 40.0014 44.602 41.4024 44.4489 42.8718C44.2468 44.8112 43.0596 46.7214 40.7589 47.0711C40.4406 47.1195 40.3363 47.1959 40.4192 47.5551C40.5593 48.1618 40.6344 48.7876 40.6286 49.4139C40.6248 49.8351 40.4196 50.0776 40.0048 50.0844C38.9293 50.1018 37.8531 50.0705 36.7772 50.0713C36.1109 50.0717 35.4363 49.9645 34.7852 50.2188C34.6596 50.2678 34.5372 50.3066 34.4975 50.4397C34.1169 51.7145 33.6682 52.9603 32.9189 54.1547C33.2896 54.1939 33.5962 54.2465 33.9041 54.2551C34.9949 54.2854 36.0703 54.4359 37.1363 54.6577C37.3963 54.7118 37.6399 54.867 37.6531 55.1519C37.6672 55.4559 37.4795 55.667 37.174 55.7632C36.2976 56.0393 35.381 56.0706 34.4837 56.2173C33.4399 56.388 32.3926 56.5427 31.3362 56.6082C30.0252 56.6895 28.7161 56.7875 27.4004 56.8109C26.401 56.8286 25.4 56.8576 24.4003 56.8689C23.0592 56.8842 21.7171 56.8536 20.376 56.8184C19.1761 56.7869 17.9764 56.7351 16.7778 56.6689C15.6402 56.6061 14.5098 56.4604 13.3809 56.3083C12.3927 56.1751 11.398 56.0855 10.4259 55.844C10.2487 55.7999 10.0799 55.7488 9.94627 55.6282C9.79961 55.4957 9.58989 55.3753 9.66351 55.1289C9.74229 54.8653 9.93348 54.7005 10.2077 54.6496C11.2263 54.4607 12.2497 54.3101 13.2853 54.251C13.6498 54.2302 14.0132 54.1888 14.4023 54.1545C14.3598 53.9403 14.2445 53.7912 14.1429 53.6335C13.7259 52.9865 13.4292 52.2868 13.1808 51.5564C13.0579 51.1953 12.953 50.83 12.835 50.4681C12.7077 50.0772 12.3391 50.0899 12.0406 50.0839C11.1395 50.066 10.2376 50.0982 9.33602 50.0964C8.79365 50.0953 8.25099 50.2081 7.70868 50.0917C7.26362 49.9963 7.10135 49.8145 7.09995 49.3529C7.09824 48.7882 7.19018 48.232 7.28425 47.677C7.30964 47.5272 7.33609 47.3776 7.36568 47.2069C6.86011 47.0725 6.37094 46.9689 5.90005 46.7745C4.48325 46.1895 3.73113 45.0491 3.30078 43.6602C2.824 42.1215 3.06429 40.6036 3.5612 39.1079C3.9839 37.8355 4.60639 36.6734 5.42839 35.6209C5.58278 35.4232 5.5973 35.2342 5.5813 34.991C5.48926 33.5917 5.42089 32.1853 5.61902 30.7943C5.73643 29.97 6.11295 29.2328 6.83995 28.7482C7.06303 28.5995 7.07843 28.4381 6.93742 28.2345C6.71785 27.9175 6.56511 27.5654 6.39275 27.191ZM12.4523 38.67C11.2619 38.3982 10.0773 38.6245 8.89166 38.7161C8.71028 38.7301 8.68927 38.8601 8.72825 39.028C8.86113 39.6 8.99738 40.1722 9.09838 40.7504C9.14861 41.0379 9.27501 41.1886 9.54493 41.2983C10.7076 41.7708 11.2896 42.9494 11.3394 44.1271C11.3749 44.9659 10.6147 45.4238 10.5444 46.1812C10.5409 46.2191 10.4678 46.2462 10.4378 46.2864C10.1096 46.727 9.58927 46.8252 9.13117 47.0342C9.01939 47.0853 8.86396 47.0893 8.83989 47.2472C8.77355 47.6822 8.7172 48.1188 8.65605 48.5609C9.21439 48.7528 9.74632 48.5771 10.2729 48.5745C11.6231 48.5678 12.9525 48.5903 14.2513 49.0751C14.9049 49.3191 15.5448 49.5904 16.1877 49.8568C16.5151 49.9925 16.8685 49.9183 17.1993 50.022C18.8938 50.5536 20.6034 51.0403 22.282 51.6185C23.5008 52.0383 24.6574 52.0432 25.8614 51.5714C26.8884 51.169 27.9557 50.8706 29.0074 50.5329C30.3722 50.0946 31.7388 49.662 33.1053 49.2292C33.7104 49.0376 34.2835 48.7485 34.9176 48.6444C35.7653 48.5051 36.6176 48.5953 37.4676 48.5779C38.021 48.5665 38.5757 48.652 39.1368 48.574C39.1691 48.1725 38.9502 47.8388 38.9367 47.471C38.9271 47.2109 38.794 47.0878 38.5638 47.0073C38.1054 46.847 37.6696 46.6383 37.3304 46.2731C36.197 45.0525 36.362 43.8075 36.7815 42.6184C37.0113 41.9671 37.5428 41.5763 38.1563 41.3077C38.3148 41.2383 38.4688 41.178 38.5063 40.9925C38.6569 40.2466 38.8011 39.4993 38.9507 38.7371C38.8634 38.7155 38.8041 38.6908 38.7435 38.6871C37.1057 38.5871 35.4779 38.5349 33.8688 39.0051C32.2485 39.4785 30.5762 39.7888 28.9851 40.3412C27.53 40.8464 26.0355 41.199 24.5811 41.6924C24.2332 41.8104 23.8568 41.8376 23.5338 41.7375C22.3481 41.3703 21.1416 41.0823 19.9524 40.732C19.0284 40.4599 18.1015 40.1906 17.176 39.9292C16.3004 39.6817 15.4153 39.4599 14.5363 39.2164C13.8661 39.0307 13.2082 38.7855 12.4523 38.67ZM22.8587 1.58124C22.5419 1.60139 22.225 1.61916 21.9084 1.64207C19.4448 1.82035 17.1112 2.48459 14.9017 3.58453C12.719 4.67118 10.8475 6.16003 9.34 8.09277C7.83865 10.0176 6.62123 12.0898 6.10237 14.5216C6.04829 14.7751 6.12186 14.8579 6.32428 14.9507C6.96776 15.2456 7.21861 15.7161 7.03983 16.4083C6.65503 17.8982 6.60591 19.4145 6.6086 20.94C6.61138 22.518 6.71492 24.0792 7.27105 25.5753C8.21058 28.1028 9.84098 30.1029 11.9325 31.7468C13.6315 33.0822 15.5785 33.9025 17.6371 34.4666C19.7836 35.0548 21.9764 35.2768 24.1992 35.2035C25.7998 35.1507 27.381 34.9831 28.9458 34.6029C30.4357 34.2409 31.8908 33.7923 33.2368 33.0575C36.1 31.4943 38.2751 29.252 39.6825 26.2748C40.1023 25.3867 40.3675 24.4532 40.4666 23.4804C40.5816 22.3519 40.6249 21.2192 40.5762 20.0819C40.5281 18.9598 40.4856 17.8447 40.2106 16.7444C40.0204 15.9833 40.0535 15.2484 40.9243 14.8659C41.0756 14.7994 41.0435 14.6753 41.0243 14.5391C40.9105 13.7341 40.608 12.9866 40.3099 12.2438C39.9338 11.3065 39.405 10.451 38.8392 9.61304C37.745 7.9923 36.4374 6.57293 34.9123 5.36989C33.4765 4.23731 31.8889 3.35788 30.1617 2.74401C28.7335 2.23645 27.2772 1.86355 25.7665 1.7123C24.8194 1.61748 23.871 1.57861 22.8587 1.58124ZM6.12048 45.1874C6.9992 45.7436 7.9342 45.8971 8.9242 45.5535C9.54559 45.3379 9.97444 44.5542 9.91159 43.8042C9.85731 43.1565 9.47577 42.8267 8.66735 42.6989C8.265 42.6352 7.88068 42.5161 7.53871 42.2702C6.88206 41.7978 6.91018 41.3706 7.63481 41.0037C7.65399 40.994 7.66273 40.9634 7.6867 40.9266C7.63257 40.68 7.57577 40.4211 7.51602 40.1488C7.22387 40.1398 6.98581 40.2543 6.75477 40.3846C6.33098 40.6236 5.95086 40.9198 5.60942 41.2692C5.48161 41.4 5.32775 41.4976 5.13361 41.3777C4.9441 41.2606 4.93092 41.0924 5.0121 40.9106C5.07402 40.772 5.14451 40.6331 5.23464 40.5121C5.66815 39.9301 6.23502 39.526 6.93033 39.3374C7.26585 39.2464 7.29426 39.0887 7.16413 38.8154C7.04207 38.559 6.97498 38.2708 7.04064 38.0053C7.10764 37.7344 7.01925 37.6306 6.79432 37.554C6.65019 37.505 6.51014 37.4418 6.37234 37.3763C6.14914 37.2701 5.99878 37.3185 5.8702 37.5432C5.61559 37.9883 5.3964 38.4486 5.20905 38.9252C4.6375 40.3793 4.29402 41.8557 4.78803 43.4108C5.01942 44.1393 5.40292 44.7558 6.12048 45.1874ZM42.9797 42.1828C42.9641 40.4907 42.3593 38.9894 41.5061 37.5687C41.4168 37.4199 41.3127 37.2867 41.1116 37.3458C40.835 37.4271 40.5581 37.5108 40.2882 37.7177C40.6409 38.0733 40.5104 38.4774 40.4084 38.8504C40.3174 39.1833 40.4536 39.273 40.725 39.3491C41.3704 39.53 41.8844 39.9163 42.3056 40.4341C42.4363 40.5948 42.5301 40.7737 42.5727 40.9792C42.6032 41.1258 42.5346 41.2267 42.4308 41.311C42.3201 41.4007 42.212 41.3559 42.1176 41.2828C41.997 41.1895 41.8835 41.0867 41.7692 40.9854C41.3088 40.5771 40.7897 40.2795 40.206 40.0799C40.0642 40.3439 40.0571 40.5907 39.9931 40.8212C39.9522 40.9685 40.0378 41.0218 40.1433 41.087C40.7603 41.4685 40.7566 41.8665 40.1408 42.2645C39.7285 42.531 39.269 42.6671 38.7979 42.7759C38.51 42.8424 38.2351 42.9316 38.0632 43.2066C37.6138 43.9254 37.8903 45.0573 38.6405 45.4486C39.5832 45.9402 40.5242 45.806 41.4027 45.2946C42.5501 44.6266 42.9769 43.5437 42.9797 42.1828ZM16.1106 54.0358C16.5925 54.5454 17.1333 54.9151 17.8611 55.0102C18.7637 55.1281 19.5405 54.9796 20.1569 54.2509C20.442 53.9138 20.618 53.5218 20.8126 53.1341C20.9572 52.846 20.9111 52.7029 20.5907 52.6133C19.8962 52.4189 19.2007 52.2221 18.521 51.9819C17.3889 51.5818 16.202 51.3594 15.0907 50.891C14.9373 50.8264 14.7544 50.7246 14.5474 50.7966C14.8396 51.9854 15.3837 53.026 16.1106 54.0358ZM30.4739 38.2039C30.407 37.5447 30.0822 37.1057 29.4159 36.9763C29.1431 36.9233 28.8645 36.869 28.5885 36.8692C25.4914 36.8714 22.3943 36.8774 19.2973 36.9008C18.8203 36.9044 18.3275 36.8966 17.8799 37.1317C17.5239 37.3187 17.1728 37.904 17.2233 38.2743C17.2799 38.6899 17.6827 38.4836 17.898 38.6281C18.038 38.7221 18.1947 38.6592 18.2707 38.4837C18.4317 38.1117 18.7463 38.0155 19.1106 38.0065C19.4529 37.998 19.7953 37.981 20.1376 37.9806C23.021 37.9768 25.9045 37.9749 28.7879 37.976C29.0894 37.9761 29.37 38.0446 29.5489 38.3267C29.7824 38.6947 30.2634 38.6586 30.4739 38.2039ZM30.697 54.5467C31.8634 53.6073 32.32 52.2626 32.8545 50.8458C32.5615 50.937 32.3802 50.9909 32.2005 51.0497C31.1043 51.4085 30.0087 51.769 28.9124 52.1276C28.274 52.3363 27.6342 52.5408 26.9963 52.7511C26.8329 52.805 26.6719 52.875 26.7677 53.1023C26.971 53.5847 27.1678 54.0776 27.54 54.4553C28.3152 55.2421 29.6479 55.2883 30.697 54.5467ZM41.9488 21.038C41.9488 21.9009 41.9488 22.7639 41.9488 23.6244C42.1679 23.5964 42.1747 23.5936 42.3094 23.5113C42.9036 23.1481 43.2181 22.5811 43.3439 21.9262C43.5769 20.7128 43.5749 19.4866 43.344 18.2728C43.1928 17.478 42.9907 16.6908 42.1485 16.3048C41.9816 16.2283 41.8149 16.1233 41.6504 16.2341C41.4676 16.3572 41.5457 16.5648 41.588 16.7312C41.9423 18.1217 41.9691 19.539 41.9488 21.038ZM5.20032 20.878C5.20709 19.4707 5.31543 18.0729 5.57857 16.6887C5.60522 16.5486 5.71305 16.3812 5.55511 16.2604C5.41433 16.1527 5.25786 16.246 5.12109 16.2938C4.43128 16.5346 4.12819 17.1126 3.96368 17.7597C3.59011 19.229 3.56774 20.7124 3.94575 22.1848C4.13186 22.9098 4.55912 23.4485 5.33234 23.6863C5.27631 22.7537 5.17037 21.8559 5.20032 20.878ZM13.6412 35.7891C13.6404 36.2114 13.6484 36.634 13.6353 37.0559C13.6278 37.2976 13.7129 37.4377 13.9495 37.505C14.4866 37.6577 15.0239 37.8118 15.5524 37.9913C15.7904 38.0722 15.8874 37.9958 15.9217 37.7756C16.0339 37.0561 16.3066 36.4324 16.9368 36.0157C16.9614 35.9994 16.9626 35.9473 16.9946 35.8534C15.8897 35.527 14.8069 35.155 13.7667 34.636C13.6487 35.0428 13.6478 35.3865 13.6412 35.7891ZM33.7278 37.3486C33.7336 36.4401 33.7626 35.5305 33.6383 34.5708C32.574 35.0977 31.4952 35.4038 30.3578 35.8048C31.3416 36.2707 31.6442 37.1117 31.8301 38.0221C32.2187 37.9163 32.5509 37.837 32.8757 37.7341C33.1606 37.6438 33.4792 37.636 33.7278 37.3486ZM40.1459 30.8456C40.0361 30.4538 39.84 30.1217 39.5118 29.8715C39.3486 29.7472 39.2455 29.745 39.1097 29.9288C38.8232 30.3166 38.5077 30.6828 38.201 31.0553C38.0273 31.2664 37.7609 31.3944 37.6208 31.7056C38.6292 32.2155 39.473 32.9306 40.2949 33.7992C40.3042 32.7599 40.3367 31.8292 40.1459 30.8456ZM8.12824 29.955C7.99978 29.7364 7.86174 29.7132 7.6822 29.91C7.55317 30.0513 7.41758 30.183 7.32925 30.3573C6.81083 31.3805 6.99817 32.466 7.04926 33.5395C7.04962 33.5471 7.06893 33.5538 7.1274 33.5936C7.87578 32.8837 8.67644 32.2122 9.66767 31.6685C9.04703 31.1641 8.61465 30.5704 8.12824 29.955ZM40.4019 36.7178C40.511 36.6391 40.6865 36.695 40.7671 36.5305C40.5245 35.9786 40.0497 35.6186 39.6509 35.196C39.5905 35.132 39.5071 35.0832 39.41 35.1276C38.7125 35.4464 38.0431 35.8219 37.5326 36.4039C37.2222 36.7578 37.3647 37.0637 37.8146 37.1471C38.137 37.2069 38.4688 37.1401 38.7904 37.2326C39.2069 37.3524 39.5992 37.3608 39.9281 36.9929C40.033 36.8756 40.2076 36.8216 40.4019 36.7178ZM7.32341 35.5368C7.08495 35.8592 6.84649 36.1816 6.59153 36.5263C6.94715 36.7288 7.28651 36.8634 7.55042 37.0881C7.83212 37.3278 8.11291 37.3105 8.42712 37.2643C8.76451 37.2147 9.10249 37.165 9.44191 37.1346C9.94103 37.0899 10.0381 36.949 9.88821 36.4624C9.85888 36.3672 9.79226 36.3161 9.72329 36.2615C9.28446 35.9139 8.82383 35.5984 8.33051 35.3349C7.7889 35.0456 7.7866 35.05 7.32341 35.5368ZM20.9022 39.2366C20.6277 39.2429 20.3531 39.2507 20.0782 39.2072C21.1985 39.5522 22.3258 39.8442 23.4362 40.1908C23.7831 40.299 24.0873 40.3125 24.4229 40.2089C24.9068 40.0597 25.3974 39.933 25.884 39.7926C26.4532 39.6283 27.0211 39.4596 27.5895 39.2928C25.3717 39.3797 23.1687 39.2733 20.9022 39.2366ZM12.3303 35.3522C12.3423 35.034 12.3498 34.7155 12.3673 34.3976C12.4022 33.7643 12.2523 33.5543 11.6087 33.3724C11.3969 34.5689 11.3038 35.7712 11.3251 36.9806C11.518 37.1113 11.7333 37.0501 11.9273 37.1026C12.1719 37.1689 12.3049 37.0895 12.2984 36.7959C12.2882 36.3363 12.3141 35.8759 12.3303 35.3522ZM35.8361 34.1328C35.7798 33.8758 35.7235 33.6187 35.6533 33.298C35.383 33.4906 34.9484 33.4965 34.9814 33.8869C35.0652 34.8802 35.0785 35.8728 35.0841 36.8672C35.0847 36.9655 35.062 37.0754 35.1885 37.1684C35.2613 37.1684 35.3607 37.1692 35.46 37.1683C36.0158 37.1631 36.0171 37.1427 36.0313 36.589C36.052 35.7821 35.8773 34.9926 35.8361 34.1328ZM9.81927 35.2558C9.87867 35.2815 9.92346 35.2586 9.92903 35.1991C9.99695 34.4739 10.0193 33.7435 10.2471 32.9638C9.56619 33.4032 8.9695 33.7919 8.44223 34.3645C8.94543 34.6173 9.36595 34.9189 9.81927 35.2558ZM38.5165 34.0749C38.1533 33.6746 37.6964 33.4204 37.1662 33.1492C37.2651 33.9084 37.2487 34.6038 37.4103 35.3577C37.8503 34.9617 38.3203 34.723 38.7363 34.443C38.7231 34.2695 38.6284 34.197 38.5165 34.0749ZM25.2986 53.8156C25.3168 53.3999 25.2296 53.3059 24.851 53.3954C24.189 53.552 23.5481 53.5888 22.8884 53.3339C22.3993 53.1448 22.3125 53.2405 22.1854 53.8826C23.2149 53.8553 24.2349 53.9414 25.2986 53.8156Z" fill="url(#paint0_linear_1636_1334)"/>
<path d="M0.19876 8.17302C0.384636 7.99844 0.598799 7.95818 0.805375 7.89883C1.22133 7.77934 1.47508 7.49884 1.57943 7.08249C1.65073 6.79797 1.70003 6.50783 1.77221 6.22356C1.83479 5.97712 1.94231 5.76945 2.24479 5.75419C2.53341 5.73963 2.69351 5.89236 2.78854 6.14272C2.84798 6.29929 2.86851 6.46252 2.88076 6.63012C2.93116 7.31946 3.28423 7.76484 3.95199 7.94885C4.04956 7.97574 4.15048 7.99891 4.24065 8.04293C4.60621 8.2214 4.63957 8.58624 4.31944 8.83588C4.17494 8.94856 4.00884 9.00118 3.83344 9.04226C3.25984 9.1766 2.93839 9.53441 2.87943 10.1336C2.86211 10.3097 2.82089 10.49 2.7536 10.6529C2.67411 10.8452 2.54117 11.0159 2.30646 11.0171C2.06189 11.0183 1.91136 10.8746 1.8276 10.6474C1.74755 10.4303 1.69729 10.2092 1.66724 9.97853C1.59912 9.45574 1.34232 9.1851 0.836916 9.05895C0.689856 9.02225 0.540488 8.98433 0.402543 8.92322C0.0408825 8.76301 -0.0163488 8.56159 0.19876 8.17302ZM1.80944 8.47786C1.96458 8.63698 2.11972 8.7961 2.28644 8.96711C2.46283 8.77175 2.61917 8.5986 2.78812 8.41148C2.62676 8.23929 2.47502 8.07737 2.36508 7.96005C2.16626 8.12861 1.98504 8.28224 1.80944 8.47786Z" fill="url(#paint1_linear_1636_1334)"/>
<path d="M40.4639 4.07507C40.6283 3.7671 40.7598 3.48254 40.7707 3.14816C40.7754 3.002 40.8356 2.84458 40.911 2.7163C41.1218 2.35742 41.5222 2.37139 41.727 2.7351C41.8155 2.89218 41.8579 3.06096 41.8785 3.24396C41.9391 3.78106 42.1186 4.23407 42.7176 4.38282C42.978 4.44747 43.2616 4.54287 43.2306 4.8952C43.1994 5.25084 42.93 5.36862 42.6204 5.41975C42.2267 5.48477 41.9918 5.72464 41.8937 6.10564C41.8524 6.26597 41.8363 6.43335 41.7892 6.59162C41.726 6.80419 41.5916 6.94287 41.3531 6.95267C41.1197 6.96226 40.9637 6.85186 40.8764 6.6436C40.8323 6.53841 40.7975 6.42545 40.7818 6.31271C40.7076 5.78063 40.4354 5.46141 39.8874 5.37664C39.6387 5.33816 39.4359 5.17652 39.4083 4.898C39.3781 4.59204 39.6219 4.48787 39.8424 4.38679C40.046 4.29344 40.3003 4.31035 40.4639 4.07507ZM41.2192 5.11216C41.439 5.25094 41.4987 5.0155 41.5388 4.9229C41.6179 4.74057 41.4586 4.64252 41.3257 4.55538C41.0416 4.8187 41.0416 4.8187 41.2192 5.11216Z" fill="url(#paint2_linear_1636_1334)"/>
<path d="M44.8304 7.73018C44.8617 8.19604 45.0155 8.51644 45.4943 8.61598C45.7384 8.66672 45.9415 8.82284 45.9425 9.11668C45.9435 9.40968 45.7412 9.58096 45.4997 9.62092C45.0114 9.70171 44.8122 9.99077 44.7724 10.4509C44.7471 10.7437 44.5857 10.9335 44.2917 10.9535C43.9821 10.9746 43.8043 10.7518 43.7681 10.4919C43.697 9.98165 43.4931 9.67288 42.9405 9.62326C42.702 9.60184 42.553 9.37272 42.5367 9.12295C42.5203 8.87197 42.6963 8.68029 42.9025 8.63941C43.4882 8.52333 43.6603 8.12507 43.7419 7.60232C43.8051 7.19761 44.308 7.05973 44.6081 7.34297C44.712 7.44103 44.7781 7.56551 44.8304 7.73018ZM44.453 9.03452C44.4319 8.91037 44.3467 8.84983 44.2346 8.80502C44.1567 8.91531 43.9302 8.96539 44.1122 9.16002C44.2708 9.32973 44.3451 9.16847 44.453 9.03452Z" fill="url(#paint3_linear_1636_1334)"/>
<path d="M32.4862 32.411C31.0168 33.1184 29.4814 33.5347 27.9262 33.8481C26.0715 34.222 24.1887 34.3364 22.2947 34.2342C21.1802 34.174 20.0682 34.0739 18.977 33.8512C17.3992 33.5291 15.8686 33.0373 14.4045 32.3519C12.3223 31.3771 10.6224 29.9097 9.27876 28.0661C8.20306 26.5902 7.51278 24.9107 7.2649 23.0705C7.04687 21.4518 7.11822 19.8435 7.30562 18.2241C7.59368 15.7348 8.53876 13.5399 10.0997 11.6162C11.3214 10.1106 12.7978 8.89631 14.4678 7.90884C16.4482 6.73783 18.5924 6.05583 20.8404 5.70624C22.4653 5.45356 24.1015 5.49637 25.7376 5.71357C27.2426 5.91336 28.7082 6.25431 30.1351 6.76641C31.4823 7.24986 32.72 7.94493 33.8837 8.77832C35.1871 9.7117 36.3313 10.8127 37.2829 12.1068C38.7201 14.0612 39.6614 16.2267 39.9667 18.6551C40.1104 19.7981 40.1752 20.9465 40.0647 22.0924C39.8288 24.5404 39.0068 26.7553 37.4101 28.6516C36.2813 29.9923 34.9813 31.1208 33.4425 31.9586C33.1417 32.1224 32.8237 32.2542 32.4862 32.411ZM28.1198 11.9651C25.9253 11.4622 23.7084 11.2594 21.4627 11.4806C20.2742 11.5977 19.0945 11.7712 17.9437 12.108C17.756 12.163 17.6419 12.1485 17.3805 12.2425C16.4658 12.5716 13.9175 13.7985 13.068 14.4145C11.4345 15.5993 11.2915 15.9381 9.78865 17.5177C9.52728 17.7925 10.2058 17.005 9.78865 17.5177C8.98469 18.5061 8.5506 19.5688 8.56814 20.8822C8.59303 22.7466 8.93501 24.5112 9.83172 26.1391C11.1691 28.5669 13.1677 30.2371 15.719 31.2766C18.0442 32.224 20.4642 32.6626 22.9549 32.7429C24.7365 32.8004 26.4954 32.6213 28.2454 32.2426C29.9007 31.8844 31.4596 31.3002 32.949 30.5117C34.0841 29.9109 35.0591 29.0953 35.9117 28.1352C36.4958 27.4774 37.0677 26.8003 37.4535 26.0027C38.0222 24.827 38.4483 23.6023 38.5747 22.285C38.652 21.4794 38.6186 20.6749 38.6083 19.8698C38.607 19.7623 38.5423 19.6504 38.4899 19.5495C37.5292 17.701 36.1241 16.2327 34.503 14.9805C32.6183 13.5248 30.4914 12.5454 28.1198 11.9651ZM23.026 7.05588C21.4557 7.09284 19.9113 7.3283 18.4112 7.78418C15.972 8.52541 13.8431 9.81233 12.0471 11.6384C10.9473 12.7565 10.1051 14.053 9.44312 15.5849C10.1977 14.7455 10.9622 14.0576 11.792 13.4507C14.8684 11.2005 18.3771 10.1799 22.1142 9.93357C24.7971 9.75674 27.4345 10.1396 30.0027 10.9713C32.8525 11.8941 35.3291 13.4106 37.3835 15.6136C37.4862 15.7237 37.5763 15.8639 37.792 15.9319C37.7033 15.7205 37.6475 15.5646 37.5747 15.4172C36.7125 13.6722 35.6056 12.1249 34.1117 10.8561C32.4658 9.45822 30.6154 8.4878 28.5613 7.85794C26.769 7.30835 24.9429 7.06751 23.026 7.05588Z" fill="url(#paint4_linear_1636_1334)"/>
<path d="M33.5853 6.03142C34.7566 6.68828 35.802 7.46995 36.7482 8.38574C37.3791 8.99622 37.9893 9.62522 38.4582 10.3771C38.4919 10.4311 38.5312 10.4818 38.5618 10.5375C38.7603 10.8988 38.7163 11.2737 38.4587 11.4311C38.2184 11.578 37.896 11.4554 37.6486 11.1473C36.3384 9.51551 34.802 8.13747 33.0479 7.00535C32.9305 6.92956 32.8024 6.86468 32.701 6.77086C32.5176 6.60117 32.3576 6.40352 32.5116 6.1351C32.6695 5.85986 32.9144 5.75207 33.2219 5.84765C33.3409 5.88464 33.4482 5.96008 33.5853 6.03142Z" fill="url(#paint5_linear_1636_1334)"/>
<path d="M10.8712 8.28738C11.1969 7.67784 11.7644 7.35434 12.2351 6.93501C12.5558 6.64928 12.9065 6.39041 13.2977 6.20069C13.5271 6.08944 13.7408 6.13376 13.9371 6.28652C14.0981 6.4118 14.1125 6.58322 14.0921 6.77042C14.0766 6.91193 13.9954 7.00867 13.8898 7.08009C13.112 7.60621 12.3633 8.1696 11.6626 8.79732C11.4963 8.94625 11.3046 8.97248 11.0993 8.86064C10.8769 8.73948 10.8028 8.55874 10.8712 8.28738Z" fill="url(#paint6_linear_1636_1334)"/>
<path d="M20.7107 3.75247C20.951 3.67993 21.1646 3.66557 21.3809 3.68884C21.6531 3.71813 21.8397 3.8667 21.8697 4.1395C21.8995 4.41109 21.7522 4.62344 21.4953 4.69206C21.1916 4.77321 20.8751 4.82114 20.5613 4.84375C20.3305 4.86038 20.1426 4.72972 20.059 4.50449C19.9708 4.26687 20.0947 4.08483 20.2626 3.9339C20.379 3.82927 20.5292 3.79095 20.7107 3.75247Z" fill="url(#paint7_linear_1636_1334)"/>
<path d="M10.0819 9.09161C10.424 9.23765 10.5471 9.458 10.411 9.79702C10.2388 10.2262 9.8364 10.5478 9.51902 10.5033C9.26473 10.4676 9.07895 10.1781 9.18918 9.92516C9.36005 9.53314 9.62006 9.21201 10.0819 9.09161Z" fill="url(#paint8_linear_1636_1334)"/>
<path d="M23.6923 4.02727C23.7112 4.33526 23.5518 4.48983 23.3095 4.54427C23.0536 4.60179 22.8027 4.57023 22.6233 4.33948C22.4948 4.17406 22.5385 3.99634 22.6234 3.83658C22.7234 3.64837 22.9023 3.6035 23.1077 3.60803C23.3884 3.61423 23.6002 3.70579 23.6923 4.02727Z" fill="url(#paint9_linear_1636_1334)"/>
</g>
<path d="M68.4 52C67.6747 52 67.056 51.808 66.544 51.424C66.0747 50.9973 65.84 50.5493 65.84 50.08V5.216C65.84 4.66133 66.0747 4.21333 66.544 3.872C67.056 3.53066 67.6747 3.36 68.4 3.36C69.168 3.36 69.808 3.53066 70.32 3.872C70.8747 4.21333 71.152 4.66133 71.152 5.216V35.168L85.744 21.984C86.128 21.6853 86.512 21.536 86.896 21.536C87.3227 21.536 87.728 21.664 88.112 21.92C88.5387 22.1333 88.88 22.432 89.136 22.816C89.4347 23.2 89.584 23.6053 89.584 24.032C89.584 24.2453 89.5413 24.48 89.456 24.736C89.3707 24.9493 89.2213 25.1413 89.008 25.312L80.112 33.184L90.736 48.608C90.9493 48.9067 91.056 49.2267 91.056 49.568C91.056 49.9947 90.9067 50.4213 90.608 50.848C90.3093 51.2747 89.9253 51.616 89.456 51.872C89.0293 52.128 88.5813 52.256 88.112 52.256C87.5147 52.256 87.024 51.9787 86.64 51.424L76.464 36.512L71.152 41.248V50.08C71.152 50.5493 70.8747 50.9973 70.32 51.424C69.808 51.808 69.168 52 68.4 52ZM109.557 52.512C107.296 52.512 105.205 51.936 103.285 50.784C101.365 49.5893 99.829 48.0533 98.677 46.176C97.525 44.2987 96.949 42.272 96.949 40.096V33.568C96.949 31.392 97.5037 29.3867 98.613 27.552C99.765 25.6747 101.301 24.16 103.221 23.008C105.141 21.856 107.253 21.28 109.557 21.28C111.818 21.28 113.909 21.856 115.829 23.008C117.749 24.1173 119.285 25.5893 120.437 27.424C121.632 29.2587 122.229 31.3067 122.229 33.568V40.096C122.229 42.2293 121.632 44.256 120.437 46.176C119.285 48.0533 117.749 49.5893 115.829 50.784C113.909 51.936 111.818 52.512 109.557 52.512ZM109.557 47.712C110.922 47.712 112.138 47.3493 113.205 46.624C114.314 45.8987 115.21 44.96 115.893 43.808C116.576 42.6133 116.917 41.376 116.917 40.096V33.568C116.917 32.3307 116.576 31.136 115.893 29.984C115.253 28.832 114.378 27.8933 113.269 27.168C112.16 26.4427 110.922 26.08 109.557 26.08C108.192 26.08 106.954 26.4427 105.845 27.168C104.736 27.8933 103.861 28.832 103.221 29.984C102.581 31.136 102.261 32.3307 102.261 33.568V40.096C102.261 41.376 102.581 42.6133 103.221 43.808C103.861 44.96 104.736 45.8987 105.845 46.624C106.954 47.3493 108.192 47.712 109.557 47.712ZM134.425 52C133.657 52 133.017 51.808 132.505 51.424C132.036 50.9973 131.801 50.5493 131.801 50.08V23.52C131.801 22.9653 132.036 22.5173 132.505 22.176C133.017 21.8347 133.657 21.664 134.425 21.664C135.108 21.664 135.684 21.8347 136.153 22.176C136.622 22.5173 136.857 22.9653 136.857 23.52V26.144C137.582 24.9067 138.649 23.7973 140.057 22.816C141.465 21.792 143.236 21.28 145.369 21.28C147.417 21.28 149.209 21.8773 150.745 23.072C152.281 24.2667 153.412 25.8027 154.137 27.68C155.246 25.504 156.676 23.904 158.425 22.88C160.174 21.8133 161.966 21.28 163.801 21.28C165.678 21.28 167.449 21.7707 169.113 22.752C170.82 23.6907 172.185 25.0773 173.209 26.912C174.276 28.7467 174.809 30.9653 174.809 33.568V50.08C174.809 50.5493 174.532 50.9973 173.977 51.424C173.465 51.808 172.846 52 172.121 52C171.396 52 170.777 51.808 170.265 51.424C169.753 50.9973 169.497 50.5493 169.497 50.08V33.568C169.497 31.9467 169.156 30.5813 168.473 29.472C167.833 28.3627 166.98 27.5307 165.913 26.976C164.889 26.3787 163.844 26.08 162.777 26.08C161.625 26.08 160.537 26.3787 159.513 26.976C158.489 27.5733 157.636 28.4053 156.953 29.472C156.27 30.5387 155.929 31.84 155.929 33.376V50.144C155.929 50.784 155.652 51.2533 155.097 51.552C154.542 51.8507 153.924 52 153.241 52C152.644 52 152.046 51.8507 151.449 51.552C150.894 51.2533 150.617 50.784 150.617 50.144V33.44C150.617 31.9893 150.297 30.7093 149.657 29.6C149.06 28.4907 148.249 27.6373 147.225 27.04C146.244 26.4 145.156 26.08 143.961 26.08C142.809 26.08 141.7 26.3787 140.633 26.976C139.609 27.5733 138.756 28.4267 138.073 29.536C137.433 30.6027 137.113 31.9467 137.113 33.568V50.08C137.113 50.5493 136.836 50.9973 136.281 51.424C135.769 51.808 135.15 52 134.425 52ZM187.875 13.344C186.979 13.344 186.19 13.0453 185.507 12.448C184.867 11.808 184.547 11.0827 184.547 10.272C184.547 9.46133 184.867 8.75733 185.507 8.16C186.19 7.56266 186.979 7.264 187.875 7.264C188.814 7.264 189.582 7.56266 190.179 8.16C190.819 8.75733 191.139 9.46133 191.139 10.272C191.139 11.0827 190.819 11.808 190.179 12.448C189.582 13.0453 188.814 13.344 187.875 13.344ZM187.875 52C187.107 52 186.467 51.808 185.955 51.424C185.486 50.9973 185.251 50.5493 185.251 50.08V23.52C185.251 22.9653 185.486 22.5173 185.955 22.176C186.467 21.8347 187.107 21.664 187.875 21.664C188.6 21.664 189.219 21.8347 189.731 22.176C190.286 22.5173 190.563 22.9653 190.563 23.52V50.08C190.563 50.5493 190.286 50.9973 189.731 51.424C189.219 51.808 188.6 52 187.875 52ZM213.04 52.512C210.096 52.512 207.664 51.9573 205.744 50.848C203.866 49.7387 202.458 48.2667 201.52 46.432C200.624 44.5547 200.176 42.4427 200.176 40.096V33.696C200.176 31.392 200.624 29.3013 201.52 27.424C202.458 25.5467 203.866 24.0533 205.744 22.944C207.664 21.8347 210.074 21.28 212.976 21.28C214.853 21.28 216.496 21.5147 217.904 21.984C219.312 22.4533 220.4 23.0293 221.168 23.712C221.936 24.3947 222.32 25.056 222.32 25.696C222.32 26.0373 222.213 26.4213 222 26.848C221.829 27.232 221.573 27.5733 221.232 27.872C220.933 28.1707 220.57 28.32 220.144 28.32C219.717 28.32 219.248 28.128 218.736 27.744C218.266 27.36 217.605 26.9973 216.752 26.656C215.941 26.272 214.789 26.08 213.296 26.08C210.693 26.08 208.73 26.7627 207.408 28.128C206.128 29.4933 205.488 31.3493 205.488 33.696V40.096C205.488 42.4427 206.128 44.2987 207.408 45.664C208.73 47.0293 210.714 47.712 213.36 47.712C214.896 47.712 216.09 47.52 216.944 47.136C217.797 46.7093 218.458 46.3253 218.928 45.984C219.44 45.6 219.93 45.408 220.4 45.408C220.869 45.408 221.274 45.5573 221.616 45.856C221.957 46.112 222.213 46.432 222.384 46.816C222.597 47.2 222.704 47.584 222.704 47.968C222.704 48.608 222.298 49.2907 221.488 50.016C220.677 50.6987 219.546 51.296 218.096 51.808C216.645 52.2773 214.96 52.512 213.04 52.512ZM233.902 52C233.134 52 232.494 51.808 231.982 51.424C231.512 50.9973 231.278 50.5493 231.278 50.08V5.216C231.278 4.66133 231.512 4.21333 231.982 3.872C232.494 3.53066 233.134 3.36 233.902 3.36C234.627 3.36 235.246 3.53066 235.758 3.872C236.312 4.21333 236.59 4.66133 236.59 5.216V26.144C237.272 24.9067 238.296 23.7973 239.662 22.816C241.07 21.792 242.819 21.28 244.91 21.28C246.958 21.28 248.835 21.856 250.542 23.008C252.248 24.1173 253.614 25.5893 254.638 27.424C255.662 29.2587 256.174 31.3067 256.174 33.568V50.08C256.174 50.72 255.896 51.2107 255.342 51.552C254.787 51.8507 254.168 52 253.486 52C252.846 52 252.248 51.8507 251.694 51.552C251.139 51.2107 250.862 50.72 250.862 50.08V33.568C250.862 32.3307 250.52 31.136 249.838 29.984C249.155 28.832 248.259 27.8933 247.15 27.168C246.083 26.4427 244.888 26.08 243.566 26.08C242.414 26.08 241.304 26.4 240.238 27.04C239.171 27.6373 238.296 28.4907 237.614 29.6C236.931 30.6667 236.59 31.9893 236.59 33.568V50.08C236.59 50.5493 236.312 50.9973 235.758 51.424C235.246 51.808 234.627 52 233.902 52ZM269.225 13.344C268.329 13.344 267.54 13.0453 266.857 12.448C266.217 11.808 265.897 11.0827 265.897 10.272C265.897 9.46133 266.217 8.75733 266.857 8.16C267.54 7.56266 268.329 7.264 269.225 7.264C270.164 7.264 270.932 7.56266 271.529 8.16C272.169 8.75733 272.489 9.46133 272.489 10.272C272.489 11.0827 272.169 11.808 271.529 12.448C270.932 13.0453 270.164 13.344 269.225 13.344ZM269.225 52C268.457 52 267.817 51.808 267.305 51.424C266.836 50.9973 266.601 50.5493 266.601 50.08V23.52C266.601 22.9653 266.836 22.5173 267.305 22.176C267.817 21.8347 268.457 21.664 269.225 21.664C269.95 21.664 270.569 21.8347 271.081 22.176C271.636 22.5173 271.913 22.9653 271.913 23.52V50.08C271.913 50.5493 271.636 50.9973 271.081 51.424C270.569 51.808 269.95 52 269.225 52Z" fill="url(#paint10_linear_1636_1334)"/>
</g>
<defs>
<linearGradient id="paint0_linear_1636_1334" x1="23.5865" y1="0.0473022" x2="23.5865" y2="56.8729" gradientUnits="userSpaceOnUse">
<stop stop-color="#696B87"/>
<stop offset="0.83" stop-color="#696B87"/>
<stop offset="1" stop-color="#BBA0A7"/>
</linearGradient>
<linearGradient id="paint1_linear_1636_1334" x1="2.30607" y1="5.75323" x2="2.30607" y2="11.0171" gradientUnits="userSpaceOnUse">
<stop stop-color="#696B87"/>
<stop offset="0.83" stop-color="#696B87"/>
<stop offset="1" stop-color="#BBA0A7"/>
</linearGradient>
<linearGradient id="paint2_linear_1636_1334" x1="41.3194" y1="2.45459" x2="41.3194" y2="6.95325" gradientUnits="userSpaceOnUse">
<stop stop-color="#696B87"/>
<stop offset="0.83" stop-color="#696B87"/>
<stop offset="1" stop-color="#BBA0A7"/>
</linearGradient>
<linearGradient id="paint3_linear_1636_1334" x1="44.2391" y1="7.1936" x2="44.2391" y2="10.9549" gradientUnits="userSpaceOnUse">
<stop stop-color="#696B87"/>
<stop offset="0.83" stop-color="#696B87"/>
<stop offset="1" stop-color="#BBA0A7"/>
</linearGradient>
<linearGradient id="paint4_linear_1636_1334" x1="23.6254" y1="5.5332" x2="23.6254" y2="34.2698" gradientUnits="userSpaceOnUse">
<stop stop-color="#696B87"/>
<stop offset="0.83" stop-color="#696B87"/>
<stop offset="1" stop-color="#BBA0A7"/>
</linearGradient>
<linearGradient id="paint5_linear_1636_1334" x1="35.5677" y1="5.81348" x2="35.5677" y2="11.493" gradientUnits="userSpaceOnUse">
<stop stop-color="#696B87"/>
<stop offset="0.83" stop-color="#696B87"/>
<stop offset="1" stop-color="#BBA0A7"/>
</linearGradient>
<linearGradient id="paint6_linear_1636_1334" x1="12.473" y1="6.13867" x2="12.473" y2="8.92964" gradientUnits="userSpaceOnUse">
<stop stop-color="#696B87"/>
<stop offset="0.83" stop-color="#696B87"/>
<stop offset="1" stop-color="#BBA0A7"/>
</linearGradient>
<linearGradient id="paint7_linear_1636_1334" x1="20.9516" y1="3.67859" x2="20.9516" y2="4.84517" gradientUnits="userSpaceOnUse">
<stop stop-color="#696B87"/>
<stop offset="0.83" stop-color="#696B87"/>
<stop offset="1" stop-color="#BBA0A7"/>
</linearGradient>
<linearGradient id="paint8_linear_1636_1334" x1="9.81105" y1="9.09161" x2="9.81105" y2="10.5074" gradientUnits="userSpaceOnUse">
<stop stop-color="#696B87"/>
<stop offset="0.83" stop-color="#696B87"/>
<stop offset="1" stop-color="#BBA0A7"/>
</linearGradient>
<linearGradient id="paint9_linear_1636_1334" x1="23.1182" y1="3.60773" x2="23.1182" y2="4.56922" gradientUnits="userSpaceOnUse">
<stop stop-color="#696B87"/>
<stop offset="0.83" stop-color="#696B87"/>
<stop offset="1" stop-color="#BBA0A7"/>
</linearGradient>
<linearGradient id="paint10_linear_1636_1334" x1="62" y1="28.5" x2="276" y2="29" gradientUnits="userSpaceOnUse">
<stop stop-color="#5F6483"/>
<stop offset="1" stop-color="#BCA1A7"/>
</linearGradient>
<clipPath id="clip0_1636_1334">
<rect width="276" height="57" fill="white"/>
</clipPath>
<clipPath id="clip1_1636_1334">
<rect width="46" height="57" fill="white"/>
</clipPath>
</defs>
</svg>
