<svg width="200" height="50" viewBox="0 0 200 50" fill="none" xmlns="http://www.w3.org/2000/svg">
    <mask id="mask0_606_1777" style="mask-type:alpha" maskUnits="userSpaceOnUse" x="0" y="0" width="50" height="50">
        <path d="M50 0H0V50H50V0Z" fill="#D9D9D9"/>
    </mask>
    <g mask="url(#mask0_606_1777)">
        <path d="M31.2503 42.628L18.7503 38.253L9.78394 41.7226C9.16964 41.9603 8.60073 41.8922 8.07722 41.5183C7.55374 41.1444 7.29199 40.6329 7.29199 39.9838V12.6602C7.29199 12.2489 7.40218 11.8797 7.62256 11.5525C7.84292 11.2253 8.15206 10.9883 8.55003 10.8413L18.7503 7.37183L31.2503 11.7468L40.2166 8.27726C40.8309 8.03961 41.3998 8.09765 41.9233 8.45156C42.4468 8.80547 42.7085 9.30023 42.7085 9.93594V37.4198C42.7085 37.8445 42.5884 38.217 42.348 38.5376C42.1075 38.858 41.7817 39.0918 41.3704 39.2387L31.2503 42.628ZM29.6878 38.806V14.431L20.3127 11.1538V35.5288L29.6878 38.806ZM32.8127 38.806L39.5836 36.5624V11.8749L32.8127 14.431V38.806ZM10.4169 38.1249L17.1878 35.5288V11.1538L10.4169 13.4374V38.1249Z"
              fill="#5E6382"/>
    </g>
    <path d="M61 48.1C60.4334 48.1 59.95 47.9334 59.55 47.6C59.1834 47.3 59 46.9667 59 46.6V14.4C59 13.9667 59.1834 13.6167 59.55 13.35C59.95 13.0834 60.4334 12.95 61 12.95C61.5666 12.95 62.0334 13.0834 62.4 13.35C62.7666 13.6167 62.95 13.9667 62.95 14.4V16.45C63.5166 15.4834 64.3666 14.6167 65.5 13.85C66.6334 13.05 68.0166 12.65 69.65 12.65C71.3166 12.65 72.8334 13.1 74.2 14C75.5666 14.8667 76.65 16.0167 77.45 17.45C78.25 18.8834 78.65 20.4834 78.65 22.25V27.35C78.65 29.0167 78.2336 30.6 77.4 32.1C76.6 33.5667 75.5334 34.7667 74.2 35.7C72.8666 36.6 71.4 37.05 69.8 37.05C68.3 37.05 66.95 36.6667 65.75 35.9C64.55 35.1 63.6834 34.1834 63.15 33.15V46.6C63.15 46.9667 62.9334 47.3 62.5 47.6C62.1 47.9334 61.6 48.1 61 48.1ZM68.8 33.3C69.8 33.3 70.7334 33.0167 71.6 32.45C72.4666 31.8834 73.1666 31.1334 73.7 30.2C74.2334 29.2667 74.5 28.3167 74.5 27.35V22.25C74.5 21.2834 74.2334 20.35 73.7 19.45C73.1666 18.55 72.4666 17.8167 71.6 17.25C70.7334 16.6834 69.7666 16.4 68.7 16.4C67.8 16.4 66.9166 16.65 66.05 17.15C65.2166 17.6167 64.5166 18.2834 63.95 19.15C63.4166 19.9834 63.15 21.0167 63.15 22.25V28.7C63.15 29.1334 63.3834 29.7167 63.85 30.45C64.35 31.1834 65.0166 31.85 65.85 32.45C66.7166 33.0167 67.7 33.3 68.8 33.3ZM95.107 37.05C93.3406 37.05 91.707 36.6 90.207 35.7C88.707 34.7667 87.507 33.5667 86.607 32.1C85.707 30.6334 85.257 29.05 85.257 27.35V22.25C85.257 20.55 85.6906 18.9834 86.557 17.55C87.457 16.0834 88.657 14.9 90.157 14C91.657 13.1 93.307 12.65 95.107 12.65C96.8734 12.65 98.507 13.1 100.007 14C101.507 14.8667 102.707 16.0167 103.607 17.45C104.541 18.8834 105.007 20.4834 105.007 22.25V27.35C105.007 29.0167 104.541 30.6 103.607 32.1C102.707 33.5667 101.507 34.7667 100.007 35.7C98.507 36.6 96.8734 37.05 95.107 37.05ZM95.107 33.3C96.1734 33.3 97.1234 33.0167 97.957 32.45C98.8234 31.8834 99.5234 31.15 100.057 30.25C100.591 29.3167 100.857 28.35 100.857 27.35V22.25C100.857 21.2834 100.591 20.35 100.057 19.45C99.557 18.55 98.8734 17.8167 98.007 17.25C97.1406 16.6834 96.1734 16.4 95.107 16.4C94.0406 16.4 93.0734 16.6834 92.207 17.25C91.3406 17.8167 90.657 18.55 90.157 19.45C89.657 20.35 89.407 21.2834 89.407 22.25V27.35C89.407 28.35 89.657 29.3167 90.157 30.25C90.657 31.15 91.3406 31.8834 92.207 32.45C93.0734 33.0167 94.0406 33.3 95.107 33.3ZM114.485 36.65C113.919 36.65 113.435 36.5 113.035 36.2C112.669 35.8667 112.485 35.5167 112.485 35.15V14.4C112.485 13.9667 112.669 13.6167 113.035 13.35C113.435 13.0834 113.919 12.95 114.485 12.95C115.052 12.95 115.519 13.0834 115.885 13.35C116.252 13.6167 116.435 13.9667 116.435 14.4V16.75C116.802 16.05 117.302 15.4 117.935 14.8C118.569 14.1667 119.302 13.65 120.135 13.25C121.002 12.85 121.952 12.65 122.985 12.65H124.685C125.119 12.65 125.485 12.8334 125.785 13.2C126.119 13.5667 126.285 14.0167 126.285 14.55C126.285 15.05 126.119 15.4834 125.785 15.85C125.485 16.2167 125.119 16.4 124.685 16.4H122.985C121.919 16.4 120.902 16.7 119.935 17.3C118.969 17.9 118.169 18.75 117.535 19.85C116.935 20.9167 116.635 22.2167 116.635 23.75V35.15C116.635 35.5167 116.419 35.8667 115.985 36.2C115.585 36.5 115.085 36.65 114.485 36.65ZM140.097 37.05C138.33 37.05 136.697 36.6 135.197 35.7C133.697 34.7667 132.497 33.5667 131.597 32.1C130.697 30.6334 130.247 29.05 130.247 27.35V22.25C130.247 20.55 130.68 18.9834 131.547 17.55C132.447 16.0834 133.647 14.9 135.147 14C136.647 13.1 138.297 12.65 140.097 12.65C141.864 12.65 143.497 13.1 144.998 14C146.497 14.8667 147.697 16.0167 148.597 17.45C149.53 18.8834 149.997 20.4834 149.997 22.25V27.35C149.997 29.0167 149.53 30.6 148.597 32.1C147.697 33.5667 146.497 34.7667 144.998 35.7C143.497 36.6 141.864 37.05 140.097 37.05ZM140.097 33.3C141.164 33.3 142.114 33.0167 142.947 32.45C143.814 31.8834 144.514 31.15 145.047 30.25C145.58 29.3167 145.847 28.35 145.847 27.35V22.25C145.847 21.2834 145.58 20.35 145.047 19.45C144.547 18.55 143.864 17.8167 142.997 17.25C142.13 16.6834 141.164 16.4 140.097 16.4C139.03 16.4 138.064 16.6834 137.197 17.25C136.33 17.8167 135.647 18.55 135.147 19.45C134.647 20.35 134.397 21.2834 134.397 22.25V27.35C134.397 28.35 134.647 29.3167 135.147 30.25C135.647 31.15 136.33 31.8834 137.197 32.45C138.064 33.0167 139.03 33.3 140.097 33.3ZM165.676 36.65C162.976 36.65 160.909 36.05 159.476 34.85C158.076 33.65 157.376 31.7334 157.376 29.1V3.35002C157.376 2.91669 157.592 2.56669 158.026 2.30002C158.459 2.03335 158.926 1.90002 159.426 1.90002C159.959 1.90002 160.442 2.03335 160.876 2.30002C161.309 2.56669 161.526 2.91669 161.526 3.35002V12.95H167.826C168.226 12.95 168.526 13.1167 168.726 13.45C168.959 13.7834 169.076 14.1667 169.076 14.6C169.076 15.0334 168.959 15.4167 168.726 15.75C168.526 16.05 168.226 16.2 167.826 16.2H161.526V29.1C161.526 30.5334 161.826 31.55 162.426 32.15C163.059 32.7167 164.142 33 165.676 33H167.226C167.826 33 168.276 33.1834 168.576 33.55C168.876 33.9167 169.026 34.3334 169.026 34.8C169.026 35.2667 168.876 35.7 168.576 36.1C168.276 36.4667 167.826 36.65 167.226 36.65H165.676ZM183.916 37.05C182.149 37.05 180.516 36.6 179.016 35.7C177.516 34.7667 176.316 33.5667 175.416 32.1C174.516 30.6334 174.066 29.05 174.066 27.35V22.25C174.066 20.55 174.499 18.9834 175.366 17.55C176.266 16.0834 177.466 14.9 178.966 14C180.466 13.1 182.116 12.65 183.916 12.65C185.682 12.65 187.316 13.1 188.816 14C190.316 14.8667 191.516 16.0167 192.416 17.45C193.349 18.8834 193.816 20.4834 193.816 22.25V27.35C193.816 29.0167 193.349 30.6 192.416 32.1C191.516 33.5667 190.316 34.7667 188.816 35.7C187.316 36.6 185.682 37.05 183.916 37.05ZM183.916 33.3C184.982 33.3 185.932 33.0167 186.766 32.45C187.632 31.8834 188.332 31.15 188.866 30.25C189.399 29.3167 189.666 28.35 189.666 27.35V22.25C189.666 21.2834 189.399 20.35 188.866 19.45C188.366 18.55 187.682 17.8167 186.816 17.25C185.949 16.6834 184.982 16.4 183.916 16.4C182.849 16.4 181.882 16.6834 181.016 17.25C180.149 17.8167 179.466 18.55 178.966 19.45C178.466 20.35 178.216 21.2834 178.216 22.25V27.35C178.216 28.35 178.466 29.3167 178.966 30.25C179.466 31.15 180.149 31.8834 181.016 32.45C181.882 33.0167 182.849 33.3 183.916 33.3Z"
          fill="url(#paint0_linear_606_1777)"/>
    <defs>
        <linearGradient id="paint0_linear_606_1777" x1="87.7828" y1="16.8335" x2="163.951" y2="48.0337"
                        gradientUnits="userSpaceOnUse">
            <stop stop-color="#5E6382"/>
            <stop offset="1" stop-color="#BBA0A6"/>
        </linearGradient>
    </defs>
</svg>
