<svg width="251" height="64" viewBox="0 0 251 64" fill="none" xmlns="http://www.w3.org/2000/svg">
    <mask id="mask0_591_1782" style="mask-type:alpha" maskUnits="userSpaceOnUse" x="0" y="0" width="64" height="64">
        <rect width="64" height="64" fill="#D9D9D9"/>
    </mask>
    <g mask="url(#mask0_591_1782)">
        <path d="M39.9996 54.564L23.9996 48.964L12.5227 53.405C11.7364 53.7093 11.0082 53.6221 10.3381 53.1435C9.66805 52.6649 9.33301 52.0102 9.33301 51.1794V16.2052C9.33301 15.6787 9.47405 15.2061 9.75614 14.7873C10.0382 14.3685 10.4339 14.0651 10.9433 13.877L23.9996 9.43604L39.9996 15.036L51.4765 10.595C52.2628 10.2908 52.991 10.3651 53.6611 10.8181C54.3312 11.2711 54.6662 11.9044 54.6662 12.7181V47.8974C54.6662 48.441 54.5124 48.9179 54.2047 49.3282C53.8969 49.7384 53.4798 50.0376 52.9534 50.2256L39.9996 54.564ZM37.9997 49.6718V18.4718L25.9995 14.277V45.477L37.9997 49.6718ZM41.9995 49.6718L50.6663 46.8V15.2L41.9995 18.4718V49.6718ZM13.3329 48.8L21.9997 45.477V14.277L13.3329 17.2V48.8Z"
              fill="#5E6382"/>
    </g>
    <path d="M78.4 62.656C77.6747 62.656 77.056 62.4427 76.544 62.016C76.0747 61.632 75.84 61.2053 75.84 60.736V19.52C75.84 18.9653 76.0747 18.5173 76.544 18.176C77.056 17.8347 77.6747 17.664 78.4 17.664C79.1253 17.664 79.7227 17.8347 80.192 18.176C80.6613 18.5173 80.896 18.9653 80.896 19.52V22.144C81.6213 20.9067 82.7093 19.7973 84.16 18.816C85.6107 17.792 87.3813 17.28 89.472 17.28C91.6053 17.28 93.5467 17.856 95.296 19.008C97.0453 20.1173 98.432 21.5893 99.456 23.424C100.48 25.2587 100.992 27.3067 100.992 29.568V36.096C100.992 38.2293 100.459 40.256 99.392 42.176C98.368 44.0533 97.0027 45.5893 95.296 46.784C93.5893 47.936 91.712 48.512 89.664 48.512C87.744 48.512 86.016 48.0213 84.48 47.04C82.944 46.016 81.8347 44.8427 81.152 43.52V60.736C81.152 61.2053 80.8747 61.632 80.32 62.016C79.808 62.4427 79.168 62.656 78.4 62.656ZM88.384 43.712C89.664 43.712 90.8587 43.3493 91.968 42.624C93.0773 41.8987 93.9733 40.9387 94.656 39.744C95.3387 38.5493 95.68 37.3333 95.68 36.096V29.568C95.68 28.3307 95.3387 27.136 94.656 25.984C93.9733 24.832 93.0773 23.8933 91.968 23.168C90.8587 22.4427 89.6213 22.08 88.256 22.08C87.104 22.08 85.9733 22.4 84.864 23.04C83.7973 23.6373 82.9013 24.4907 82.176 25.6C81.4933 26.6667 81.152 27.9893 81.152 29.568V37.824C81.152 38.3787 81.4507 39.1253 82.048 40.064C82.688 41.0027 83.5413 41.856 84.608 42.624C85.7173 43.3493 86.976 43.712 88.384 43.712ZM122.057 48.512C119.796 48.512 117.705 47.936 115.785 46.784C113.865 45.5893 112.329 44.0533 111.177 42.176C110.025 40.2987 109.449 38.272 109.449 36.096V29.568C109.449 27.392 110.004 25.3867 111.113 23.552C112.265 21.6747 113.801 20.16 115.721 19.008C117.641 17.856 119.753 17.28 122.057 17.28C124.318 17.28 126.409 17.856 128.329 19.008C130.249 20.1173 131.785 21.5893 132.937 23.424C134.132 25.2587 134.729 27.3067 134.729 29.568V36.096C134.729 38.2293 134.132 40.256 132.937 42.176C131.785 44.0533 130.249 45.5893 128.329 46.784C126.409 47.936 124.318 48.512 122.057 48.512ZM122.057 43.712C123.422 43.712 124.638 43.3493 125.705 42.624C126.814 41.8987 127.71 40.96 128.393 39.808C129.076 38.6133 129.417 37.376 129.417 36.096V29.568C129.417 28.3307 129.076 27.136 128.393 25.984C127.753 24.832 126.878 23.8933 125.769 23.168C124.66 22.4427 123.422 22.08 122.057 22.08C120.692 22.08 119.454 22.4427 118.345 23.168C117.236 23.8933 116.361 24.832 115.721 25.984C115.081 27.136 114.761 28.3307 114.761 29.568V36.096C114.761 37.376 115.081 38.6133 115.721 39.808C116.361 40.96 117.236 41.8987 118.345 42.624C119.454 43.3493 120.692 43.712 122.057 43.712ZM146.861 48C146.136 48 145.517 47.808 145.005 47.424C144.536 46.9973 144.301 46.5493 144.301 46.08V19.52C144.301 18.9653 144.536 18.5173 145.005 18.176C145.517 17.8347 146.136 17.664 146.861 17.664C147.586 17.664 148.184 17.8347 148.653 18.176C149.122 18.5173 149.357 18.9653 149.357 19.52V22.528C149.826 21.632 150.466 20.8 151.277 20.032C152.088 19.2213 153.026 18.56 154.093 18.048C155.202 17.536 156.418 17.28 157.741 17.28H159.917C160.472 17.28 160.941 17.5147 161.325 17.984C161.752 18.4533 161.965 19.0293 161.965 19.712C161.965 20.352 161.752 20.9067 161.325 21.376C160.941 21.8453 160.472 22.08 159.917 22.08H157.741C156.376 22.08 155.074 22.464 153.837 23.232C152.6 24 151.576 25.088 150.765 26.496C149.997 27.8613 149.613 29.5253 149.613 31.488V46.08C149.613 46.5493 149.336 46.9973 148.781 47.424C148.269 47.808 147.629 48 146.861 48ZM179.644 48.512C177.383 48.512 175.292 47.936 173.372 46.784C171.452 45.5893 169.916 44.0533 168.764 42.176C167.612 40.2987 167.036 38.272 167.036 36.096V29.568C167.036 27.392 167.591 25.3867 168.7 23.552C169.852 21.6747 171.388 20.16 173.308 19.008C175.228 17.856 177.34 17.28 179.644 17.28C181.906 17.28 183.996 17.856 185.917 19.008C187.836 20.1173 189.372 21.5893 190.524 23.424C191.719 25.2587 192.316 27.3067 192.316 29.568V36.096C192.316 38.2293 191.719 40.256 190.524 42.176C189.372 44.0533 187.836 45.5893 185.917 46.784C183.996 47.936 181.906 48.512 179.644 48.512ZM179.644 43.712C181.01 43.712 182.226 43.3493 183.292 42.624C184.402 41.8987 185.298 40.96 185.98 39.808C186.663 38.6133 187.004 37.376 187.004 36.096V29.568C187.004 28.3307 186.663 27.136 185.98 25.984C185.34 24.832 184.466 23.8933 183.356 23.168C182.247 22.4427 181.01 22.08 179.644 22.08C178.279 22.08 177.042 22.4427 175.932 23.168C174.823 23.8933 173.948 24.832 173.308 25.984C172.668 27.136 172.348 28.3307 172.348 29.568V36.096C172.348 37.376 172.668 38.6133 173.308 39.808C173.948 40.96 174.823 41.8987 175.932 42.624C177.042 43.3493 178.279 43.712 179.644 43.712ZM212.385 48C208.929 48 206.283 47.232 204.449 45.696C202.657 44.16 201.761 41.7067 201.761 38.336V5.376C201.761 4.82133 202.038 4.37333 202.593 4.032C203.147 3.69066 203.745 3.52 204.385 3.52C205.067 3.52 205.686 3.69066 206.241 4.032C206.795 4.37333 207.073 4.82133 207.073 5.376V17.664H215.137C215.649 17.664 216.033 17.8773 216.289 18.304C216.587 18.7307 216.737 19.2213 216.737 19.776C216.737 20.3307 216.587 20.8213 216.289 21.248C216.033 21.632 215.649 21.824 215.137 21.824H207.073V38.336C207.073 40.1707 207.457 41.472 208.225 42.24C209.035 42.9653 210.422 43.328 212.385 43.328H214.369C215.137 43.328 215.713 43.5627 216.097 44.032C216.481 44.5013 216.673 45.0347 216.673 45.632C216.673 46.2293 216.481 46.784 216.097 47.296C215.713 47.7653 215.137 48 214.369 48H212.385ZM235.732 48.512C233.471 48.512 231.38 47.936 229.46 46.784C227.54 45.5893 226.004 44.0533 224.852 42.176C223.7 40.2987 223.124 38.272 223.124 36.096V29.568C223.124 27.392 223.679 25.3867 224.788 23.552C225.94 21.6747 227.476 20.16 229.396 19.008C231.316 17.856 233.428 17.28 235.732 17.28C237.993 17.28 240.084 17.856 242.004 19.008C243.924 20.1173 245.46 21.5893 246.612 23.424C247.807 25.2587 248.404 27.3067 248.404 29.568V36.096C248.404 38.2293 247.807 40.256 246.612 42.176C245.46 44.0533 243.924 45.5893 242.004 46.784C240.084 47.936 237.993 48.512 235.732 48.512ZM235.732 43.712C237.097 43.712 238.313 43.3493 239.38 42.624C240.489 41.8987 241.385 40.96 242.068 39.808C242.751 38.6133 243.092 37.376 243.092 36.096V29.568C243.092 28.3307 242.751 27.136 242.068 25.984C241.428 24.832 240.553 23.8933 239.444 23.168C238.335 22.4427 237.097 22.08 235.732 22.08C234.367 22.08 233.129 22.4427 232.02 23.168C230.911 23.8933 230.036 24.832 229.396 25.984C228.756 27.136 228.436 28.3307 228.436 29.568V36.096C228.436 37.376 228.756 38.6133 229.396 39.808C230.036 40.96 230.911 41.8987 232.02 42.624C233.129 43.3493 234.367 43.712 235.732 43.712Z"
          fill="url(#paint0_linear_591_1782)"/>
    <defs>
        <linearGradient id="paint0_linear_591_1782" x1="112.682" y1="22.6349" x2="210.177" y2="62.5711"
                        gradientUnits="userSpaceOnUse">
            <stop stop-color="#5E6382"/>
            <stop offset="1" stop-color="#BBA0A6"/>
        </linearGradient>
    </defs>
</svg>
