<svg width="1200" height="600" viewBox="0 0 1200 600" fill="none" xmlns="http://www.w3.org/2000/svg">
<rect width="1200" height="600" fill="#F7F5EE"/>
<path d="M474 373C471.733 373 469.8 372.4 468.2 371.2C466.733 369.867 466 368.467 466 367V226.8C466 225.067 466.733 223.667 468.2 222.6C469.8 221.533 471.733 221 474 221C476.4 221 478.4 221.533 480 222.6C481.733 223.667 482.6 225.067 482.6 226.8V320.4L528.2 279.2C529.4 278.267 530.6 277.8 531.8 277.8C533.133 277.8 534.4 278.2 535.6 279C536.933 279.667 538 280.6 538.8 281.8C539.733 283 540.2 284.267 540.2 285.6C540.2 286.267 540.067 287 539.8 287.8C539.533 288.467 539.067 289.067 538.4 289.6L510.6 314.2L543.8 362.4C544.467 363.333 544.8 364.333 544.8 365.4C544.8 366.733 544.333 368.067 543.4 369.4C542.467 370.733 541.267 371.8 539.8 372.6C538.467 373.4 537.067 373.8 535.6 373.8C533.733 373.8 532.2 372.933 531 371.2L499.2 324.6L482.6 339.4V367C482.6 368.467 481.733 369.867 480 371.2C478.4 372.4 476.4 373 474 373ZM602.616 374.6C595.549 374.6 589.016 372.8 583.016 369.2C577.016 365.467 572.216 360.667 568.616 354.8C565.016 348.933 563.216 342.6 563.216 335.8V315.4C563.216 308.6 564.949 302.333 568.416 296.6C572.016 290.733 576.816 286 582.816 282.4C588.816 278.8 595.416 277 602.616 277C609.682 277 616.216 278.8 622.216 282.4C628.216 285.867 633.016 290.467 636.616 296.2C640.349 301.933 642.216 308.333 642.216 315.4V335.8C642.216 342.467 640.349 348.8 636.616 354.8C633.016 360.667 628.216 365.467 622.216 369.2C616.216 372.8 609.682 374.6 602.616 374.6ZM602.616 359.6C606.882 359.6 610.682 358.467 614.016 356.2C617.482 353.933 620.282 351 622.416 347.4C624.549 343.667 625.616 339.8 625.616 335.8V315.4C625.616 311.533 624.549 307.8 622.416 304.2C620.416 300.6 617.682 297.667 614.216 295.4C610.749 293.133 606.882 292 602.616 292C598.349 292 594.482 293.133 591.016 295.4C587.549 297.667 584.816 300.6 582.816 304.2C580.816 307.8 579.816 311.533 579.816 315.4V335.8C579.816 339.8 580.816 343.667 582.816 347.4C584.816 351 587.549 353.933 591.016 356.2C594.482 358.467 598.349 359.6 602.616 359.6ZM680.328 373C677.928 373 675.928 372.4 674.328 371.2C672.861 369.867 672.128 368.467 672.128 367V284C672.128 282.267 672.861 280.867 674.328 279.8C675.928 278.733 677.928 278.2 680.328 278.2C682.461 278.2 684.261 278.733 685.728 279.8C687.195 280.867 687.928 282.267 687.928 284V292.2C690.195 288.333 693.528 284.867 697.928 281.8C702.328 278.6 707.861 277 714.528 277C720.928 277 726.528 278.867 731.328 282.6C736.128 286.333 739.661 291.133 741.928 297C745.395 290.2 749.861 285.2 755.328 282C760.795 278.667 766.395 277 772.128 277C777.995 277 783.528 278.533 788.728 281.6C794.061 284.533 798.328 288.867 801.528 294.6C804.861 300.333 806.528 307.267 806.528 315.4V367C806.528 368.467 805.661 369.867 803.928 371.2C802.328 372.4 800.395 373 798.128 373C795.861 373 793.928 372.4 792.328 371.2C790.728 369.867 789.928 368.467 789.928 367V315.4C789.928 310.333 788.861 306.067 786.728 302.6C784.728 299.133 782.061 296.533 778.728 294.8C775.528 292.933 772.261 292 768.928 292C765.328 292 761.928 292.933 758.728 294.8C755.528 296.667 752.861 299.267 750.728 302.6C748.595 305.933 747.528 310 747.528 314.8V367.2C747.528 369.2 746.661 370.667 744.928 371.6C743.195 372.533 741.261 373 739.128 373C737.261 373 735.395 372.533 733.528 371.6C731.795 370.667 730.928 369.2 730.928 367.2V315C730.928 310.467 729.928 306.467 727.928 303C726.061 299.533 723.528 296.867 720.328 295C717.261 293 713.861 292 710.128 292C706.528 292 703.061 292.933 699.728 294.8C696.528 296.667 693.861 299.333 691.728 302.8C689.728 306.133 688.728 310.333 688.728 315.4V367C688.728 368.467 687.861 369.867 686.128 371.2C684.528 372.4 682.595 373 680.328 373ZM847.359 252.2C844.559 252.2 842.093 251.267 839.959 249.4C837.959 247.4 836.959 245.133 836.959 242.6C836.959 240.067 837.959 237.867 839.959 236C842.093 234.133 844.559 233.2 847.359 233.2C850.293 233.2 852.693 234.133 854.559 236C856.559 237.867 857.559 240.067 857.559 242.6C857.559 245.133 856.559 247.4 854.559 249.4C852.693 251.267 850.293 252.2 847.359 252.2ZM847.359 373C844.959 373 842.959 372.4 841.359 371.2C839.893 369.867 839.159 368.467 839.159 367V284C839.159 282.267 839.893 280.867 841.359 279.8C842.959 278.733 844.959 278.2 847.359 278.2C849.626 278.2 851.559 278.733 853.159 279.8C854.893 280.867 855.759 282.267 855.759 284V367C855.759 368.467 854.893 369.867 853.159 371.2C851.559 372.4 849.626 373 847.359 373ZM925.998 374.6C916.798 374.6 909.198 372.867 903.198 369.4C897.332 365.933 892.932 361.333 889.998 355.6C887.198 349.733 885.798 343.133 885.798 335.8V315.8C885.798 308.6 887.198 302.067 889.998 296.2C892.932 290.333 897.332 285.667 903.198 282.2C909.198 278.733 916.732 277 925.798 277C931.665 277 936.798 277.733 941.198 279.2C945.598 280.667 948.998 282.467 951.398 284.6C953.798 286.733 954.998 288.8 954.998 290.8C954.998 291.867 954.665 293.067 953.998 294.4C953.465 295.6 952.665 296.667 951.598 297.6C950.665 298.533 949.532 299 948.198 299C946.865 299 945.398 298.4 943.798 297.2C942.332 296 940.265 294.867 937.598 293.8C935.065 292.6 931.465 292 926.798 292C918.665 292 912.532 294.133 908.398 298.4C904.398 302.667 902.398 308.467 902.398 315.8V335.8C902.398 343.133 904.398 348.933 908.398 353.2C912.532 357.467 918.732 359.6 926.998 359.6C931.798 359.6 935.532 359 938.198 357.8C940.865 356.467 942.932 355.267 944.398 354.2C945.998 353 947.532 352.4 948.998 352.4C950.465 352.4 951.732 352.867 952.798 353.8C953.865 354.6 954.665 355.6 955.198 356.8C955.865 358 956.198 359.2 956.198 360.4C956.198 362.4 954.932 364.533 952.398 366.8C949.865 368.933 946.332 370.8 941.798 372.4C937.265 373.867 931.998 374.6 925.998 374.6ZM991.192 373C988.792 373 986.792 372.4 985.192 371.2C983.726 369.867 982.992 368.467 982.992 367V226.8C982.992 225.067 983.726 223.667 985.192 222.6C986.792 221.533 988.792 221 991.192 221C993.459 221 995.392 221.533 996.992 222.6C998.726 223.667 999.592 225.067 999.592 226.8V292.2C1001.73 288.333 1004.93 284.867 1009.19 281.8C1013.59 278.6 1019.06 277 1025.59 277C1031.99 277 1037.86 278.8 1043.19 282.4C1048.53 285.867 1052.79 290.467 1055.99 296.2C1059.19 301.933 1060.79 308.333 1060.79 315.4V367C1060.79 369 1059.93 370.533 1058.19 371.6C1056.46 372.533 1054.53 373 1052.39 373C1050.39 373 1048.53 372.533 1046.79 371.6C1045.06 370.533 1044.19 369 1044.19 367V315.4C1044.19 311.533 1043.13 307.8 1040.99 304.2C1038.86 300.6 1036.06 297.667 1032.59 295.4C1029.26 293.133 1025.53 292 1021.39 292C1017.79 292 1014.33 293 1010.99 295C1007.66 296.867 1004.93 299.533 1002.79 303C1000.66 306.333 999.592 310.467 999.592 315.4V367C999.592 368.467 998.726 369.867 996.992 371.2C995.392 372.4 993.459 373 991.192 373ZM1101.58 252.2C1098.78 252.2 1096.31 251.267 1094.18 249.4C1092.18 247.4 1091.18 245.133 1091.18 242.6C1091.18 240.067 1092.18 237.867 1094.18 236C1096.31 234.133 1098.78 233.2 1101.58 233.2C1104.51 233.2 1106.91 234.133 1108.78 236C1110.78 237.867 1111.78 240.067 1111.78 242.6C1111.78 245.133 1110.78 247.4 1108.78 249.4C1106.91 251.267 1104.51 252.2 1101.58 252.2ZM1101.58 373C1099.18 373 1097.18 372.4 1095.58 371.2C1094.11 369.867 1093.38 368.467 1093.38 367V284C1093.38 282.267 1094.11 280.867 1095.58 279.8C1097.18 278.733 1099.18 278.2 1101.58 278.2C1103.84 278.2 1105.78 278.733 1107.38 279.8C1109.11 280.867 1109.98 282.267 1109.98 284V367C1109.98 368.467 1109.11 369.867 1107.38 371.2C1105.78 372.4 1103.84 373 1101.58 373Z" fill="url(#paint0_linear_1642_7458)"/>
<g clip-path="url(#clip0_1642_7458)">
<path d="M148.441 276.824C146.567 273.427 145.488 269.899 144.226 266.452C143.779 265.23 143.111 264.68 141.864 264.476C131.149 262.719 125.728 255.651 123.368 245.792C120.921 235.573 121.527 225.3 124.15 215.242C125.783 208.98 129.171 203.604 135.54 200.872C136.807 200.328 137.129 199.471 137.304 198.33C139.028 187.117 143.309 176.854 149.075 167.152C155.321 156.642 162.558 146.858 171.737 138.712C181.751 129.825 192.992 122.747 205.467 117.696C212.832 114.714 220.313 112.075 228.096 110.397C240.868 107.645 253.741 106.66 266.818 107.701C275.988 108.43 285.003 109.964 293.776 112.472C305.69 115.879 316.998 120.769 327.407 127.679C336.531 133.738 344.653 140.841 351.836 149.03C359.367 157.615 365.45 167.109 370.121 177.553C373.139 184.302 375.66 191.141 376.89 198.438C377.053 199.411 377.294 200.432 378.505 200.903C385.795 203.738 388.822 209.867 390.666 216.808C392.149 222.387 392.664 228.101 392.59 233.867C392.487 241.788 391.301 249.449 386.566 256.1C383.272 260.729 378.846 263.759 373.067 264.45C371.477 264.64 370.749 265.284 370.292 266.837C368.619 272.53 366.342 277.973 363.048 282.967C362.238 284.196 361.756 285.445 363.514 286.603C370.656 291.307 371.968 298.57 372.019 306.33C372.064 313.337 372.516 320.342 372.14 327.351C372.099 328.122 372.607 328.705 373.052 329.261C377.728 335.109 381.643 341.419 384.41 348.369C387.78 356.833 390.156 365.584 389.187 374.761C387.909 386.873 380.398 398.804 365.844 400.988C363.83 401.29 363.171 401.768 363.695 404.011C364.581 407.8 365.056 411.709 365.02 415.62C364.995 418.251 363.697 419.766 361.073 419.808C354.27 419.917 347.462 419.721 340.655 419.726C336.44 419.729 332.173 419.059 328.053 420.647C327.259 420.953 326.485 421.196 326.234 422.027C323.826 429.989 320.987 437.77 316.248 445.23C318.592 445.474 320.532 445.803 322.48 445.856C329.38 446.046 336.183 446.986 342.927 448.371C344.572 448.709 346.113 449.678 346.196 451.458C346.286 453.356 345.098 454.674 343.165 455.275C337.621 457 331.823 457.195 326.146 458.112C319.543 459.178 312.918 460.144 306.235 460.553C297.941 461.061 289.66 461.673 281.337 461.819C275.015 461.93 268.682 462.11 262.358 462.181C253.874 462.276 245.384 462.086 236.9 461.866C229.309 461.669 221.719 461.345 214.137 460.932C206.941 460.54 199.789 459.63 192.648 458.68C186.397 457.848 180.104 457.289 173.955 455.78C172.834 455.505 171.766 455.186 170.92 454.432C169.993 453.605 168.666 452.853 169.132 451.314C169.63 449.667 170.839 448.638 172.574 448.32C179.018 447.14 185.492 446.2 192.043 445.831C194.349 445.701 196.648 445.442 199.11 445.228C198.841 443.891 198.111 442.959 197.468 441.974C194.83 437.933 192.954 433.563 191.382 429.001C190.605 426.746 189.941 424.464 189.195 422.204C188.389 419.763 186.058 419.842 184.169 419.805C178.469 419.693 172.763 419.894 167.06 419.883C163.629 419.876 160.196 420.58 156.765 419.854C153.95 419.257 152.923 418.122 152.914 415.239C152.903 411.712 153.485 408.238 154.08 404.772C154.241 403.836 154.408 402.902 154.595 401.836C151.397 400.997 148.302 400.35 145.324 399.135C136.361 395.482 131.603 388.359 128.88 379.685C125.864 370.074 127.384 360.594 130.528 351.253C133.202 343.306 137.14 336.048 142.34 329.474C143.317 328.24 143.408 327.059 143.307 325.54C142.725 316.801 142.292 308.017 143.546 299.329C144.289 294.181 146.67 289.577 151.27 286.55C152.681 285.621 152.778 284.613 151.886 283.342C150.497 281.362 149.531 279.163 148.441 276.824ZM186.773 348.518C179.243 346.82 171.749 348.234 164.249 348.806C163.101 348.893 162.968 349.705 163.215 350.754C164.056 354.326 164.918 357.9 165.557 361.511C165.874 363.307 166.674 364.248 168.381 364.933C175.737 367.884 179.418 375.246 179.734 382.601C179.958 387.84 175.149 390.7 174.704 395.43C174.682 395.667 174.22 395.836 174.03 396.087C171.954 398.839 168.662 399.452 165.764 400.758C165.057 401.076 164.074 401.102 163.921 402.088C163.502 404.805 163.145 407.531 162.758 410.293C166.29 411.491 169.655 410.394 172.987 410.378C181.528 410.336 189.938 410.476 198.154 413.504C202.289 415.028 206.337 416.723 210.404 418.387C212.475 419.234 214.711 418.77 216.804 419.418C227.523 422.738 238.338 425.778 248.957 429.389C256.667 432.011 263.984 432.042 271.601 429.095C278.098 426.582 284.85 424.718 291.502 422.609C300.136 419.872 308.782 417.169 317.427 414.467C321.254 413.27 324.88 411.464 328.891 410.814C334.254 409.944 339.645 410.508 345.023 410.399C348.523 410.328 352.033 410.862 355.582 410.374C355.787 407.867 354.402 405.783 354.316 403.485C354.256 401.861 353.414 401.092 351.957 400.589C349.058 399.588 346.3 398.285 344.155 396.004C336.985 388.381 338.029 380.604 340.682 373.178C342.136 369.11 345.499 366.669 349.379 364.992C350.382 364.558 351.357 364.182 351.594 363.023C352.547 358.364 353.459 353.697 354.405 348.937C353.853 348.802 353.477 348.648 353.094 348.625C342.733 348 332.435 347.674 322.257 350.611C312.006 353.568 301.427 355.506 291.362 358.956C282.157 362.111 272.702 364.313 263.502 367.395C261.301 368.132 258.92 368.301 256.877 367.676C249.376 365.383 241.743 363.584 234.22 361.397C228.375 359.697 222.511 358.015 216.656 356.382C211.117 354.837 205.518 353.451 199.957 351.93C195.718 350.771 191.555 349.239 186.773 348.518ZM252.606 116.876C250.602 117.002 248.597 117.113 246.594 117.256C231.009 118.369 216.246 122.518 202.269 129.388C188.461 136.174 176.622 145.473 167.085 157.544C157.587 169.566 149.886 182.508 146.604 197.696C146.261 199.279 146.727 199.797 148.007 200.376C152.078 202.218 153.665 205.156 152.534 209.48C150.1 218.785 149.789 228.255 149.806 237.783C149.824 247.639 150.479 257.389 153.997 266.734C159.94 282.519 170.254 295.011 183.486 305.278C194.234 313.619 206.55 318.742 219.573 322.265C233.152 325.939 247.024 327.326 261.085 326.868C271.211 326.538 281.214 325.491 291.113 323.116C300.539 320.855 309.743 318.054 318.258 313.464C336.371 303.701 350.131 289.697 359.034 271.103C361.69 265.555 363.368 259.726 363.995 253.65C364.722 246.601 364.996 239.527 364.688 232.424C364.384 225.416 364.115 218.451 362.375 211.579C361.172 206.826 361.381 202.236 366.89 199.846C367.847 199.432 367.644 198.656 367.522 197.806C366.803 192.778 364.889 188.109 363.004 183.47C360.624 177.616 357.279 172.273 353.7 167.039C346.777 156.917 338.505 148.052 328.857 140.538C319.775 133.465 309.731 127.972 298.805 124.138C289.77 120.968 280.557 118.639 271.001 117.694C265.009 117.102 259.01 116.859 252.606 116.876ZM146.718 389.223C152.277 392.697 158.192 393.656 164.455 391.51C168.386 390.163 171.099 385.268 170.701 380.584C170.358 376.539 167.944 374.479 162.83 373.681C160.284 373.283 157.853 372.539 155.69 371.003C151.536 368.053 151.714 365.385 156.298 363.093C156.419 363.033 156.475 362.841 156.626 362.612C156.284 361.071 155.924 359.455 155.546 357.754C153.698 357.697 152.192 358.413 150.731 359.226C148.05 360.719 145.645 362.569 143.485 364.752C142.677 365.569 141.703 366.178 140.475 365.429C139.276 364.698 139.193 363.647 139.706 362.512C140.098 361.646 140.544 360.779 141.114 360.023C143.857 356.388 147.443 353.864 151.841 352.686C153.964 352.118 154.143 351.133 153.32 349.426C152.548 347.824 152.124 346.025 152.539 344.366C152.963 342.674 152.404 342.026 150.981 341.548C150.069 341.242 149.183 340.847 148.311 340.438C146.899 339.775 145.948 340.077 145.135 341.48C143.524 344.26 142.137 347.135 140.952 350.112C137.337 359.193 135.164 368.415 138.289 378.127C139.753 382.677 142.179 386.528 146.718 389.223ZM379.893 370.458C379.794 359.889 375.968 350.513 370.571 341.639C370.006 340.711 369.347 339.878 368.075 340.248C366.325 340.755 364.573 341.278 362.866 342.57C365.097 344.791 364.272 347.315 363.627 349.645C363.051 351.724 363.912 352.284 365.629 352.759C369.712 353.889 372.964 356.301 375.628 359.536C376.455 360.539 377.048 361.657 377.318 362.94C377.511 363.856 377.077 364.486 376.42 365.012C375.72 365.573 375.036 365.293 374.439 364.837C373.676 364.254 372.958 363.612 372.235 362.979C369.322 360.429 366.038 358.57 362.346 357.323C361.449 358.973 361.404 360.514 360.999 361.953C360.741 362.873 361.282 363.206 361.949 363.613C365.853 365.996 365.829 368.482 361.934 370.968C359.325 372.632 356.419 373.482 353.438 374.162C351.617 374.577 349.878 375.134 348.791 376.852C345.948 381.341 347.697 388.41 352.442 390.854C358.406 393.925 364.359 393.086 369.916 389.892C377.175 385.72 379.875 378.957 379.893 370.458ZM209.916 444.487C212.965 447.669 216.386 449.978 220.991 450.572C226.7 451.309 231.614 450.382 235.514 445.83C237.317 443.725 238.43 441.277 239.662 438.855C240.577 437.056 240.285 436.162 238.258 435.602C233.865 434.388 229.464 433.159 225.165 431.659C218.003 429.16 210.495 427.771 203.464 424.846C202.494 424.442 201.337 423.806 200.027 424.256C201.876 431.68 205.318 438.18 209.916 444.487ZM300.78 345.607C300.357 341.489 298.302 338.748 294.087 337.94C292.361 337.609 290.598 337.27 288.853 337.271C269.26 337.284 249.667 337.322 230.076 337.468C227.058 337.491 223.941 337.442 221.109 338.911C218.857 340.078 216.636 343.734 216.955 346.046C217.314 348.642 219.862 347.354 221.224 348.256C222.109 348.843 223.101 348.45 223.581 347.354C224.6 345.031 226.59 344.43 228.895 344.374C231.06 344.321 233.226 344.215 235.392 344.212C253.633 344.188 271.873 344.176 290.114 344.183C292.021 344.184 293.797 344.612 294.928 346.373C296.405 348.672 299.449 348.447 300.78 345.607ZM302.191 447.678C309.57 441.811 312.459 433.412 315.84 424.563C313.986 425.133 312.839 425.47 311.703 425.837C304.768 428.077 297.837 430.329 290.902 432.569C286.863 433.873 282.816 435.15 278.78 436.463C277.746 436.8 276.728 437.237 277.334 438.656C278.62 441.669 279.865 444.748 282.22 447.107C287.124 452.021 295.555 452.31 302.191 447.678ZM373.371 238.395C373.371 243.785 373.371 249.174 373.371 254.549C374.757 254.374 374.8 254.357 375.653 253.842C379.411 251.574 381.401 248.033 382.197 243.943C383.671 236.364 383.658 228.706 382.197 221.125C381.241 216.161 379.962 211.244 374.634 208.834C373.579 208.356 372.524 207.7 371.483 208.392C370.327 209.161 370.821 210.457 371.089 211.497C373.33 220.181 373.5 229.033 373.371 238.395ZM140.897 237.396C140.94 228.606 141.625 219.877 143.29 211.231C143.459 210.356 144.141 209.311 143.142 208.556C142.251 207.884 141.261 208.466 140.396 208.765C136.032 210.269 134.115 213.879 133.074 217.92C130.711 227.097 130.569 236.362 132.961 245.558C134.138 250.086 136.841 253.45 141.732 254.935C141.378 249.111 140.708 243.504 140.897 237.396ZM194.295 330.525C194.289 333.162 194.341 335.802 194.257 338.437C194.21 339.946 194.748 340.822 196.245 341.242C199.643 342.196 203.042 343.158 206.385 344.279C207.891 344.784 208.505 344.307 208.722 342.932C209.431 338.438 211.156 334.543 215.143 331.94C215.299 331.839 215.306 331.513 215.509 330.926C208.519 328.888 201.669 326.564 195.089 323.323C194.342 325.864 194.337 328.011 194.295 330.525ZM321.364 340.265C321.401 334.591 321.585 328.91 320.798 322.916C314.066 326.206 307.241 328.118 300.046 330.623C306.269 333.533 308.184 338.785 309.359 344.471C311.818 343.811 313.919 343.315 315.974 342.672C317.776 342.109 319.792 342.06 321.364 340.265ZM361.966 299.649C361.271 297.203 360.031 295.128 357.954 293.566C356.922 292.789 356.27 292.776 355.411 293.924C353.598 296.346 351.602 298.633 349.663 300.959C348.563 302.278 346.878 303.077 345.992 305.021C352.371 308.206 357.709 312.672 362.908 318.097C362.967 311.606 363.173 305.793 361.966 299.649ZM159.419 294.087C158.607 292.722 157.733 292.577 156.598 293.806C155.781 294.689 154.924 295.511 154.365 296.6C151.085 302.99 152.27 309.77 152.594 316.475C152.596 316.522 152.718 316.564 153.088 316.813C157.822 312.379 162.887 308.185 169.158 304.789C165.232 301.639 162.496 297.931 159.419 294.087ZM363.585 336.325C364.276 335.834 365.386 336.183 365.895 335.156C364.361 331.708 361.357 329.46 358.834 326.821C358.452 326.421 357.925 326.116 357.311 326.393C352.898 328.384 348.663 330.729 345.434 334.365C343.47 336.575 344.372 338.485 347.218 339.007C349.257 339.38 351.357 338.963 353.391 339.541C356.026 340.289 358.507 340.341 360.588 338.043C361.252 337.311 362.356 336.973 363.585 336.325ZM154.328 328.949C152.819 330.963 151.311 332.976 149.698 335.129C151.948 336.394 154.094 337.235 155.764 338.638C157.546 340.135 159.322 340.027 161.31 339.738C163.444 339.428 165.583 339.118 167.73 338.929C170.887 338.649 171.501 337.769 170.553 334.73C170.368 334.135 169.946 333.816 169.51 333.475C166.734 331.304 163.82 329.334 160.699 327.688C157.273 325.881 157.258 325.909 154.328 328.949ZM240.229 352.057C238.492 352.096 236.755 352.145 235.016 351.873C242.103 354.028 249.234 355.852 256.259 358.016C258.453 358.692 260.378 358.776 262.501 358.13C265.562 357.197 268.666 356.406 271.744 355.529C275.345 354.503 278.937 353.449 282.533 352.407C268.503 352.951 254.566 352.286 240.229 352.057ZM186.002 327.796C186.078 325.809 186.125 323.82 186.236 321.834C186.457 317.879 185.509 316.567 181.437 315.431C180.097 322.904 179.508 330.413 179.643 337.967C180.863 338.783 182.225 338.4 183.453 338.729C185 339.142 185.841 338.647 185.8 336.813C185.735 333.943 185.899 331.067 186.002 327.796ZM334.702 320.18C334.346 318.575 333.99 316.969 333.546 314.967C331.835 316.17 329.086 316.206 329.295 318.645C329.825 324.848 329.909 331.048 329.945 337.259C329.948 337.872 329.805 338.558 330.605 339.14C331.065 339.14 331.694 339.145 332.323 339.139C335.838 339.106 335.847 338.979 335.937 335.521C336.067 330.481 334.962 325.55 334.702 320.18ZM170.117 327.194C170.493 327.355 170.776 327.211 170.811 326.84C171.241 322.311 171.382 317.749 172.823 312.879C168.516 315.623 164.741 318.051 161.406 321.627C164.589 323.206 167.249 325.09 170.117 327.194ZM351.658 319.819C349.361 317.318 346.47 315.731 343.116 314.037C343.742 318.778 343.638 323.122 344.66 327.83C347.444 325.357 350.417 323.867 353.049 322.118C352.965 321.034 352.366 320.581 351.658 319.819ZM268.04 443.111C268.156 440.515 267.604 439.928 265.209 440.487C261.021 441.465 256.967 441.695 252.793 440.103C249.699 438.922 249.15 439.52 248.346 443.53C254.859 443.36 261.312 443.897 268.04 443.111Z" fill="url(#paint1_linear_1642_7458)"/>
<path d="M109.258 158.045C110.434 156.955 111.789 156.704 113.096 156.333C115.727 155.587 117.333 153.835 117.993 151.234C118.444 149.457 118.756 147.645 119.212 145.87C119.608 144.331 120.288 143.034 122.202 142.938C124.028 142.847 125.04 143.801 125.642 145.365C126.018 146.343 126.147 147.362 126.225 148.409C126.544 152.714 128.777 155.496 133.002 156.645C133.619 156.813 134.257 156.958 134.828 157.233C137.14 158.348 137.351 160.626 135.326 162.185C134.412 162.889 133.361 163.218 132.252 163.474C128.623 164.313 126.59 166.548 126.217 170.29C126.107 171.39 125.846 172.516 125.421 173.533C124.918 174.735 124.077 175.801 122.592 175.808C121.045 175.816 120.092 174.918 119.563 173.5C119.056 172.144 118.738 170.762 118.548 169.322C118.117 166.057 116.493 164.366 113.295 163.579C112.365 163.349 111.42 163.113 110.548 162.731C108.26 161.73 107.898 160.472 109.258 158.045ZM119.448 159.949C120.429 160.943 121.411 161.937 122.465 163.005C123.581 161.785 124.57 160.703 125.639 159.535C124.618 158.459 123.658 157.448 122.963 156.715C121.705 157.768 120.559 158.728 119.448 159.949Z" fill="url(#paint2_linear_1642_7458)"/>
<path d="M363.978 132.451C365.018 130.528 365.85 128.751 365.919 126.662C365.949 125.749 366.33 124.766 366.806 123.965C368.14 121.724 370.673 121.811 371.969 124.082C372.528 125.063 372.796 126.118 372.927 127.261C373.31 130.615 374.446 133.444 378.235 134.373C379.882 134.777 381.677 135.373 381.481 137.574C381.283 139.795 379.579 140.53 377.62 140.85C375.13 141.256 373.644 142.754 373.023 145.133C372.762 146.135 372.66 147.18 372.362 148.169C371.962 149.496 371.112 150.363 369.603 150.424C368.126 150.484 367.14 149.794 366.588 148.493C366.309 147.836 366.089 147.131 365.989 146.427C365.52 143.104 363.798 141.11 360.331 140.58C358.758 140.34 357.475 139.331 357.3 137.591C357.109 135.68 358.652 135.03 360.046 134.398C361.334 133.815 362.943 133.921 363.978 132.451ZM368.756 138.929C370.147 139.795 370.524 138.325 370.778 137.747C371.278 136.608 370.271 135.995 369.43 135.451C367.633 137.096 367.633 137.096 368.756 138.929Z" fill="url(#paint3_linear_1642_7458)"/>
<path d="M391.6 155.28C391.799 158.189 392.772 160.19 395.801 160.812C397.345 161.129 398.629 162.104 398.636 163.939C398.642 165.769 397.363 166.839 395.835 167.089C392.746 167.593 391.486 169.399 391.234 172.272C391.074 174.101 390.053 175.286 388.193 175.411C386.234 175.543 385.11 174.152 384.881 172.528C384.431 169.342 383.141 167.413 379.645 167.103C378.136 166.969 377.194 165.538 377.091 163.978C376.987 162.411 378.1 161.214 379.405 160.958C383.11 160.233 384.199 157.746 384.715 154.481C385.114 151.953 388.296 151.092 390.195 152.861C390.852 153.474 391.27 154.251 391.6 155.28ZM389.213 163.426C389.08 162.651 388.541 162.273 387.832 161.993C387.339 162.682 385.906 162.994 387.057 164.21C388.061 165.27 388.531 164.263 389.213 163.426Z" fill="url(#paint4_linear_1642_7458)"/>
<path d="M313.511 309.427C304.216 313.845 294.503 316.445 284.664 318.402C272.931 320.737 261.02 321.452 249.039 320.813C241.988 320.438 234.954 319.813 228.051 318.421C218.07 316.41 208.386 313.338 199.125 309.057C185.952 302.969 175.199 293.805 166.699 282.29C159.894 273.072 155.527 262.583 153.959 251.089C152.58 240.98 153.031 230.935 154.217 220.821C156.039 205.274 162.017 191.565 171.892 179.551C179.62 170.147 188.96 162.563 199.525 156.396C212.053 149.082 225.618 144.822 239.839 142.639C250.118 141.061 260.469 141.328 270.819 142.685C280.34 143.933 289.611 146.062 298.638 149.26C307.16 152.28 314.99 156.621 322.352 161.826C330.597 167.656 337.835 174.532 343.855 182.614C352.948 194.821 358.902 208.346 360.833 223.513C361.742 230.651 362.152 237.824 361.454 244.98C359.961 260.27 354.761 274.103 344.66 285.947C337.519 294.32 329.295 301.368 319.561 306.601C317.658 307.624 315.646 308.447 313.511 309.427ZM285.889 181.729C272.006 178.588 257.982 177.322 243.776 178.704C236.257 179.435 228.794 180.518 221.514 182.622C220.327 182.965 219.605 182.875 217.951 183.462C212.164 185.517 196.044 193.18 190.67 197.028C180.336 204.427 179.431 206.543 169.924 216.409C168.271 218.125 172.563 213.206 169.924 216.409C164.838 222.582 162.092 229.219 162.203 237.422C162.361 249.066 164.524 260.088 170.197 270.255C178.657 285.418 191.301 295.849 207.441 302.342C222.15 308.259 237.459 310.998 253.215 311.5C264.486 311.859 275.613 310.74 286.683 308.375C297.155 306.137 307.017 302.489 316.439 297.565C323.619 293.812 329.787 288.718 335.181 282.722C338.876 278.614 342.494 274.385 344.935 269.403C348.532 262.06 351.228 254.411 352.028 246.183C352.516 241.152 352.305 236.127 352.24 231.099C352.232 230.428 351.822 229.729 351.491 229.099C345.414 217.554 336.525 208.383 326.27 200.563C314.347 191.471 300.892 185.353 285.889 181.729ZM253.665 151.068C243.731 151.299 233.961 152.77 224.471 155.617C209.041 160.246 195.573 168.284 184.212 179.689C177.254 186.673 171.927 194.77 167.739 204.337C172.512 199.095 177.348 194.798 182.598 191.008C202.059 176.954 224.256 170.58 247.897 169.041C264.869 167.937 281.554 170.328 297.8 175.522C315.828 181.286 331.496 190.757 344.492 204.517C345.142 205.204 345.712 206.08 347.076 206.505C346.515 205.184 346.162 204.211 345.701 203.29C340.247 192.391 333.245 182.727 323.794 174.803C313.382 166.072 301.676 160.012 288.682 156.078C277.343 152.645 265.791 151.141 253.665 151.068Z" fill="url(#paint5_linear_1642_7458)"/>
<path d="M320.464 144.67C327.874 148.772 334.487 153.654 340.473 159.374C344.464 163.187 348.324 167.115 351.291 171.811C351.504 172.149 351.752 172.466 351.946 172.813C353.201 175.07 352.923 177.411 351.294 178.394C349.774 179.312 347.734 178.546 346.169 176.622C337.881 166.43 328.161 157.824 317.065 150.753C316.322 150.279 315.511 149.874 314.87 149.288C313.71 148.228 312.697 146.994 313.672 145.318C314.671 143.598 316.22 142.925 318.165 143.522C318.918 143.753 319.597 144.224 320.464 144.67Z" fill="url(#paint6_linear_1642_7458)"/>
<path d="M176.772 158.76C178.832 154.953 182.422 152.932 185.4 150.313C187.429 148.529 189.647 146.912 192.122 145.727C193.573 145.032 194.925 145.309 196.167 146.263C197.185 147.046 197.277 148.116 197.147 149.285C197.049 150.169 196.536 150.773 195.868 151.219C190.948 154.505 186.211 158.024 181.778 161.945C180.726 162.875 179.513 163.039 178.215 162.34C176.808 161.583 176.339 160.454 176.772 158.76Z" fill="url(#paint7_linear_1642_7458)"/>
<path d="M239.019 130.436C240.539 129.983 241.891 129.894 243.259 130.039C244.981 130.222 246.161 131.15 246.351 132.854C246.539 134.55 245.607 135.876 243.982 136.305C242.061 136.811 240.059 137.111 238.074 137.252C236.614 137.356 235.425 136.54 234.896 135.133C234.338 133.649 235.122 132.512 236.184 131.569C236.921 130.916 237.871 130.677 239.019 130.436Z" fill="url(#paint8_linear_1642_7458)"/>
<path d="M171.778 163.783C173.943 164.695 174.721 166.071 173.861 168.188C172.771 170.869 170.225 172.877 168.218 172.599C166.609 172.376 165.434 170.568 166.131 168.989C167.212 166.54 168.857 164.535 171.778 163.783Z" fill="url(#paint9_linear_1642_7458)"/>
<path d="M257.88 132.153C257.999 134.076 256.991 135.042 255.458 135.382C253.839 135.741 252.252 135.544 251.118 134.103C250.304 133.07 250.581 131.96 251.118 130.962C251.75 129.786 252.882 129.506 254.181 129.534C255.957 129.573 257.297 130.145 257.88 132.153Z" fill="url(#paint10_linear_1642_7458)"/>
</g>
<defs>
<linearGradient id="paint0_linear_1642_7458" x1="454" y1="300" x2="1122" y2="301.568" gradientUnits="userSpaceOnUse">
<stop stop-color="#5F6483"/>
<stop offset="1" stop-color="#BCA1A7"/>
</linearGradient>
<linearGradient id="paint1_linear_1642_7458" x1="257.209" y1="107.295" x2="257.209" y2="462.206" gradientUnits="userSpaceOnUse">
<stop stop-color="#696B87"/>
<stop offset="0.96" stop-color="#696B87"/>
<stop offset="1" stop-color="#BBA0A7"/>
</linearGradient>
<linearGradient id="paint2_linear_1642_7458" x1="122.589" y1="142.932" x2="122.589" y2="175.808" gradientUnits="userSpaceOnUse">
<stop stop-color="#696B87"/>
<stop offset="0.96" stop-color="#696B87"/>
<stop offset="1" stop-color="#BBA0A7"/>
</linearGradient>
<linearGradient id="paint3_linear_1642_7458" x1="369.39" y1="122.33" x2="369.39" y2="150.427" gradientUnits="userSpaceOnUse">
<stop stop-color="#696B87"/>
<stop offset="0.96" stop-color="#696B87"/>
<stop offset="1" stop-color="#BBA0A7"/>
</linearGradient>
<linearGradient id="paint4_linear_1642_7458" x1="387.86" y1="151.928" x2="387.86" y2="175.42" gradientUnits="userSpaceOnUse">
<stop stop-color="#696B87"/>
<stop offset="0.96" stop-color="#696B87"/>
<stop offset="1" stop-color="#BBA0A7"/>
</linearGradient>
<linearGradient id="paint5_linear_1642_7458" x1="257.457" y1="141.558" x2="257.457" y2="321.036" gradientUnits="userSpaceOnUse">
<stop stop-color="#696B87"/>
<stop offset="0.96" stop-color="#696B87"/>
<stop offset="1" stop-color="#BBA0A7"/>
</linearGradient>
<linearGradient id="paint6_linear_1642_7458" x1="333.005" y1="143.309" x2="333.005" y2="178.781" gradientUnits="userSpaceOnUse">
<stop stop-color="#696B87"/>
<stop offset="0.96" stop-color="#696B87"/>
<stop offset="1" stop-color="#BBA0A7"/>
</linearGradient>
<linearGradient id="paint7_linear_1642_7458" x1="186.905" y1="145.34" x2="186.905" y2="162.771" gradientUnits="userSpaceOnUse">
<stop stop-color="#696B87"/>
<stop offset="0.96" stop-color="#696B87"/>
<stop offset="1" stop-color="#BBA0A7"/>
</linearGradient>
<linearGradient id="paint8_linear_1642_7458" x1="240.543" y1="129.975" x2="240.543" y2="137.261" gradientUnits="userSpaceOnUse">
<stop stop-color="#696B87"/>
<stop offset="0.96" stop-color="#696B87"/>
<stop offset="1" stop-color="#BBA0A7"/>
</linearGradient>
<linearGradient id="paint9_linear_1642_7458" x1="170.065" y1="163.783" x2="170.065" y2="172.625" gradientUnits="userSpaceOnUse">
<stop stop-color="#696B87"/>
<stop offset="0.96" stop-color="#696B87"/>
<stop offset="1" stop-color="#BBA0A7"/>
</linearGradient>
<linearGradient id="paint10_linear_1642_7458" x1="254.248" y1="129.533" x2="254.248" y2="135.538" gradientUnits="userSpaceOnUse">
<stop stop-color="#696B87"/>
<stop offset="0.96" stop-color="#696B87"/>
<stop offset="1" stop-color="#BBA0A7"/>
</linearGradient>
<clipPath id="clip0_1642_7458">
<rect width="291" height="356" fill="white" transform="translate(108 107)"/>
</clipPath>
</defs>
</svg>
