<svg width="315" height="75" viewBox="0 0 315 75" fill="none" xmlns="http://www.w3.org/2000/svg">
<g clip-path="url(#clip0_1837_7253)">
<path d="M8.47723 35.7776C8.08442 35.0619 7.85835 34.3186 7.59388 33.5923C7.50014 33.3349 7.36008 33.2192 7.09863 33.1761C4.85256 32.8059 3.71626 31.317 3.2214 29.2399C2.70849 27.087 2.83556 24.9229 3.38539 22.8037C3.72768 21.4845 4.43794 20.352 5.7731 19.7764C6.03854 19.6619 6.10609 19.4813 6.14285 19.241C6.50407 16.8786 7.40158 14.7166 8.61021 12.6725C9.91947 10.4583 11.4366 8.39706 13.3608 6.6809C15.4598 4.80876 17.8163 3.31759 20.4313 2.25343C21.9751 1.62523 23.5433 1.06919 25.1748 0.715774C27.852 0.135849 30.5505 -0.0715314 33.2918 0.14768C35.2139 0.301374 37.1038 0.624545 38.9427 1.15293C41.4403 1.87058 43.8107 2.90072 45.9925 4.35663C47.9051 5.63294 49.6078 7.12946 51.1135 8.8547C52.692 10.6634 53.9671 12.6635 54.9463 14.8638C55.5791 16.2855 56.1075 17.7264 56.3652 19.2636C56.3995 19.4685 56.45 19.6838 56.7038 19.783C58.2319 20.3802 58.8664 21.6715 59.253 23.1336C59.5639 24.3092 59.6719 25.5129 59.6563 26.7275C59.6348 28.3963 59.3861 30.0103 58.3936 31.4116C57.703 32.3867 56.7752 33.0251 55.5638 33.1706C55.2305 33.2106 55.0779 33.3463 54.9822 33.6736C54.6315 34.8729 54.1541 36.0197 53.4638 37.0716C53.2938 37.3306 53.1928 37.5937 53.5614 37.8377C55.0586 38.8287 55.3335 40.3588 55.3441 41.9937C55.3537 43.4699 55.4485 44.9456 55.3696 46.4224C55.3609 46.5848 55.4675 46.7076 55.5608 46.8248C56.5409 48.0567 57.3616 49.386 57.9416 50.8501C58.648 52.6334 59.146 54.4769 58.943 56.4103C58.675 58.9621 57.1006 61.4756 54.0498 61.9357C53.6277 61.9994 53.4894 62.0999 53.5993 62.5725C53.785 63.3708 53.8846 64.1942 53.877 65.0183C53.8719 65.5725 53.5998 65.8916 53.0498 65.9005C51.6236 65.9234 50.1964 65.8823 48.7697 65.8833C47.8861 65.8839 46.9915 65.7427 46.128 66.0774C45.9615 66.1419 45.7993 66.1929 45.7466 66.368C45.2419 68.0454 44.6468 69.6846 43.6533 71.2562C44.1447 71.3077 44.5514 71.377 44.9597 71.3883C46.4062 71.4282 47.8322 71.6262 49.2459 71.918C49.5907 71.9892 49.9137 72.1934 49.9312 72.5683C49.9499 72.9683 49.7009 73.246 49.2958 73.3727C48.1336 73.736 46.9182 73.7771 45.7283 73.9702C44.3441 74.1948 42.9552 74.3983 41.5544 74.4845C39.8159 74.5915 38.0799 74.7205 36.3352 74.7512C35.0099 74.7745 33.6825 74.8126 32.3569 74.8275C30.5784 74.8476 28.7986 74.8074 27.0203 74.7611C25.4291 74.7197 23.8381 74.6514 22.2487 74.5644C20.7402 74.4817 19.2411 74.2901 17.7441 74.0899C16.4337 73.9147 15.1146 73.7968 13.8256 73.4789C13.5906 73.421 13.3667 73.3537 13.1895 73.195C12.995 73.0206 12.7169 72.8623 12.8145 72.5381C12.919 72.1912 13.1725 71.9743 13.5362 71.9074C14.887 71.6588 16.2441 71.4607 17.6173 71.3829C18.1007 71.3555 18.5826 71.301 19.0986 71.256C19.0422 70.9742 18.8893 70.7779 18.7546 70.5704C18.2016 69.7191 17.8082 68.7984 17.4787 67.8374C17.3158 67.3622 17.1766 66.8815 17.0203 66.4054C16.8514 65.8911 16.3627 65.9078 15.9668 65.8999C14.7719 65.8763 13.5758 65.9187 12.3803 65.9164C11.661 65.9149 10.9414 66.0633 10.2223 65.9102C9.63207 65.7846 9.41689 65.5454 9.41503 64.938C9.41276 64.195 9.53469 63.4632 9.65943 62.7329C9.6931 62.5358 9.72817 62.3389 9.76742 62.1144C9.09698 61.9376 8.4483 61.8012 7.82386 61.5454C5.94507 60.7757 4.94768 59.2752 4.377 57.4477C3.74475 55.423 4.0634 53.4258 4.72234 51.4577C5.28288 49.7836 6.10836 48.2545 7.1984 46.8696C7.40313 46.6095 7.42239 46.3608 7.40118 46.0408C7.27912 44.1996 7.18845 42.349 7.4512 40.5188C7.60689 39.4342 8.10619 38.4642 9.07026 37.8265C9.36608 37.6309 9.3865 37.4186 9.1995 37.1507C8.90834 36.7336 8.70579 36.2702 8.47723 35.7776ZM16.5127 50.8816C14.9342 50.524 13.3632 50.8218 11.791 50.9423C11.5505 50.9607 11.5226 51.1318 11.5743 51.3526C11.7505 52.1053 11.9312 52.8582 12.0651 53.619C12.1317 53.9973 12.2994 54.1956 12.6573 54.3399C14.1991 54.9616 14.9708 56.5124 15.0369 58.0619C15.084 59.1657 14.0759 59.7682 13.9827 60.7648C13.978 60.8146 13.8811 60.8503 13.8414 60.9032C13.4061 61.4829 12.7161 61.6121 12.1086 61.8872C11.9604 61.9543 11.7543 61.9597 11.7224 62.1674C11.6344 62.7398 11.5597 63.3142 11.4786 63.8959C12.219 64.1484 12.9244 63.9173 13.6227 63.9138C15.4131 63.905 17.1761 63.9347 18.8983 64.5726C19.7651 64.8936 20.6136 65.2506 21.4662 65.6011C21.9003 65.7796 22.369 65.682 22.8076 65.8185C25.0548 66.5179 27.3218 67.1583 29.5478 67.9191C31.1639 68.4715 32.6978 68.4779 34.2944 67.8572C35.6562 67.3277 37.0716 66.935 38.4662 66.4907C40.276 65.914 42.0883 65.3447 43.9004 64.7753C44.7028 64.5232 45.4628 64.1428 46.3036 64.0057C47.4278 63.8225 48.558 63.9412 49.6852 63.9183C50.419 63.9034 51.1547 64.0158 51.8986 63.9131C51.9416 63.3849 51.6513 62.9458 51.6334 62.4618C51.6207 62.1196 51.4441 61.9576 51.1388 61.8517C50.531 61.6408 49.953 61.3662 49.5033 60.8856C48.0002 59.2797 48.2191 57.6414 48.7754 56.0768C49.0801 55.2199 49.7849 54.7056 50.5985 54.3522C50.8087 54.2609 51.0129 54.1816 51.0626 53.9375C51.2624 52.956 51.4535 51.9728 51.6519 50.9699C51.5361 50.9414 51.4574 50.909 51.3771 50.9042C49.2053 50.7725 47.0466 50.7038 44.9129 51.3225C42.7642 51.9454 40.5467 52.3537 38.4367 53.0806C36.5071 53.7452 34.5252 54.2092 32.5966 54.8584C32.1352 55.0138 31.6361 55.0494 31.2078 54.9178C29.6354 54.4346 28.0355 54.0557 26.4585 53.5948C25.2332 53.2367 24.0041 52.8824 22.7768 52.5384C21.6156 52.2128 20.4419 51.921 19.2762 51.6005C18.3876 51.3562 17.515 51.0336 16.5127 50.8816ZM30.3125 2.08059C29.8925 2.10711 29.4722 2.13049 29.0524 2.16063C25.7853 2.39522 22.6908 3.26922 19.7609 4.71651C16.8664 6.14631 14.3847 8.10532 12.3855 10.6484C10.3946 13.181 8.78021 15.9077 8.09216 19.1074C8.02045 19.4409 8.118 19.5499 8.38642 19.6719C9.23974 20.06 9.57238 20.679 9.33531 21.5898C8.82503 23.5503 8.7599 25.5454 8.76346 27.5526C8.76714 29.629 8.90445 31.6832 9.64193 33.6518C10.8878 36.9774 13.0499 39.6091 15.8235 41.7722C18.0765 43.5292 20.6584 44.6085 23.3882 45.3508C26.2346 46.1247 29.1425 46.4169 32.0901 46.3204C34.2127 46.251 36.3095 46.0304 38.3845 45.5301C40.3603 45.0538 42.2899 44.4636 44.0748 43.4967C47.8716 41.4398 50.756 38.4895 52.6223 34.5722C53.179 33.4035 53.5307 32.1753 53.6622 30.8953C53.8147 29.4104 53.872 27.92 53.8074 26.4236C53.7437 24.9471 53.6873 23.4799 53.3227 22.0322C53.0704 21.0307 53.1143 20.0638 54.2691 19.5604C54.4697 19.473 54.4271 19.3096 54.4016 19.1304C54.2508 18.0712 53.8497 17.0877 53.4544 16.1103C52.9556 14.877 52.2543 13.7514 51.5041 12.6488C50.053 10.5162 48.319 8.64861 46.2966 7.06566C44.3926 5.57542 42.2873 4.41828 39.9969 3.61056C38.1031 2.94271 36.1718 2.45205 34.1685 2.25305C32.9125 2.12828 31.6549 2.07714 30.3125 2.08059ZM8.11618 59.4571C9.28144 60.189 10.5213 60.391 11.8342 59.9389C12.6582 59.6551 13.2269 58.624 13.1435 57.6371C13.0715 56.7848 12.5656 56.351 11.4935 56.1827C10.96 56.099 10.4504 55.9423 9.99686 55.6187C9.12609 54.9972 9.16338 54.435 10.1243 53.9523C10.1497 53.9395 10.1613 53.8992 10.1931 53.8509C10.1213 53.5263 10.046 53.1857 9.96678 52.8273C9.57936 52.8155 9.26368 52.9662 8.9573 53.1376C8.39531 53.4521 7.89124 53.8418 7.43847 54.3016C7.26898 54.4738 7.06495 54.6021 6.8075 54.4443C6.5562 54.2903 6.53871 54.0689 6.64636 53.8298C6.72847 53.6474 6.82195 53.4647 6.94147 53.3054C7.51634 52.5396 8.26806 52.0079 9.1901 51.7598C9.63503 51.6401 9.6727 51.4325 9.50015 51.0729C9.33829 50.7355 9.24931 50.3563 9.33639 50.007C9.42523 49.6505 9.30803 49.5139 9.00974 49.4132C8.81861 49.3487 8.63289 49.2656 8.45016 49.1793C8.15417 49.0397 7.95479 49.1032 7.78428 49.399C7.44664 49.9846 7.15598 50.5903 6.90754 51.2174C6.14962 53.1307 5.69413 55.0733 6.34923 57.1195C6.65607 58.078 7.16462 58.8893 8.11618 59.4571ZM56.9947 55.5037C56.974 53.2772 56.172 51.3018 55.0406 49.4325C54.9222 49.2368 54.7842 49.0615 54.5174 49.1393C54.1507 49.2462 53.7834 49.3563 53.4256 49.6286C53.8933 50.0965 53.7202 50.6282 53.585 51.119C53.4643 51.557 53.6449 51.6751 54.0048 51.7752C54.8606 52.0132 55.5423 52.5214 56.1008 53.2028C56.2741 53.4142 56.3985 53.6496 56.4551 53.92C56.4954 54.1129 56.4045 54.2457 56.2668 54.3565C56.12 54.4747 55.9766 54.4156 55.8515 54.3195C55.6916 54.1968 55.5411 54.0615 55.3895 53.9281C54.7789 53.391 54.0905 52.9994 53.3166 52.7367C53.1286 53.0842 53.1191 53.4089 53.0343 53.7121C52.98 53.9059 53.0935 53.976 53.2334 54.0618C54.0516 54.5638 54.0467 55.0875 53.2301 55.6112C52.6833 55.9619 52.0741 56.141 51.4493 56.2841C51.0674 56.3716 50.7029 56.489 50.475 56.8508C49.8791 57.7966 50.2457 59.2859 51.2405 59.8007C52.4907 60.4477 53.7385 60.271 54.9035 59.5981C56.425 58.7192 56.991 57.2944 56.9947 55.5037ZM21.3639 71.0998C22.003 71.7702 22.7201 72.2567 23.6853 72.3818C24.8821 72.537 25.9122 72.3416 26.7297 71.3828C27.1078 70.9392 27.3411 70.4234 27.5992 69.9133C27.791 69.5343 27.7298 69.3459 27.305 69.228C26.384 68.9723 25.4616 68.7133 24.5603 68.3972C23.059 67.8708 21.4852 67.5782 20.0114 66.9619C19.808 66.8768 19.5655 66.7429 19.291 66.8377C19.6785 68.4018 20.4001 69.771 21.3639 71.0998ZM40.4109 50.2683C40.3222 49.4009 39.8915 48.8233 39.0079 48.653C38.6461 48.5833 38.2767 48.5119 37.9108 48.5122C33.8037 48.515 29.6966 48.5229 25.5897 48.5537C24.9572 48.5585 24.3038 48.5482 23.7102 48.8576C23.2382 49.1036 22.7725 49.8737 22.8394 50.3609C22.9146 50.9078 23.4487 50.6363 23.7341 50.8264C23.9198 50.9501 24.1277 50.8674 24.2284 50.6364C24.4419 50.147 24.8591 50.0203 25.3422 50.0085C25.7962 49.9974 26.2501 49.975 26.7041 49.9744C30.5278 49.9695 34.3515 49.9669 38.1751 49.9684C38.5749 49.9686 38.9471 50.0586 39.1843 50.4298C39.4939 50.9141 40.1318 50.8667 40.4109 50.2683ZM40.7068 71.7721C42.2536 70.536 42.859 68.7666 43.5678 66.9023C43.1792 67.0223 42.9389 67.0933 42.7006 67.1707C41.2469 67.6427 39.794 68.1171 38.3402 68.5889C37.4937 68.8636 36.6453 69.1327 35.7993 69.4094C35.5826 69.4803 35.3692 69.5724 35.4962 69.8714C35.7658 70.5062 36.0267 71.1548 36.5203 71.6518C37.5483 72.6869 39.3156 72.7478 40.7068 71.7721ZM55.6277 27.6816C55.6277 28.817 55.6277 29.9525 55.6277 31.0848C55.9182 31.0479 55.9273 31.0442 56.1059 30.9359C56.8938 30.458 57.3109 29.712 57.4777 28.8503C57.7867 27.2537 57.784 25.6402 57.4778 24.0432C57.2773 22.9974 57.0092 21.9615 55.8924 21.4537C55.6712 21.3531 55.4501 21.2148 55.2319 21.3607C54.9895 21.5227 55.0931 21.7958 55.1493 22.0148C55.619 23.8443 55.6546 25.7092 55.6277 27.6816ZM6.89597 27.4711C6.90494 25.6194 7.0486 23.7802 7.39756 21.9589C7.43289 21.7744 7.57589 21.5543 7.36645 21.3953C7.17975 21.2536 6.97226 21.3764 6.79089 21.4392C5.87615 21.756 5.47422 22.5167 5.25607 23.368C4.76069 25.3013 4.73101 27.2532 5.23229 29.1906C5.47909 30.1445 6.04568 30.8533 7.07103 31.1662C6.99673 29.9391 6.85625 28.7578 6.89597 27.4711ZM18.0893 47.0909C18.0882 47.6466 18.0989 48.2026 18.0815 48.7577C18.0715 49.0757 18.1843 49.2602 18.4981 49.3487C19.2103 49.5496 19.9229 49.7523 20.6238 49.9886C20.9394 50.095 21.068 49.9945 21.1135 49.7047C21.2622 48.758 21.6239 47.9374 22.4596 47.389C22.4922 47.3677 22.4937 47.2991 22.5363 47.1755C21.0711 46.7461 19.6351 46.2566 18.2558 45.5737C18.0993 46.109 18.0981 46.5613 18.0893 47.0909ZM44.7259 49.1429C44.7335 47.9475 44.772 46.7507 44.6072 45.4879C43.1959 46.1812 41.7653 46.5839 40.257 47.1116C41.5616 47.7246 41.9629 48.8312 42.2093 50.0291C42.7247 49.8899 43.1652 49.7856 43.5959 49.6501C43.9737 49.5314 44.3963 49.521 44.7259 49.1429ZM53.2368 40.5863C53.0913 40.0708 52.8312 39.6338 52.396 39.3047C52.1796 39.1411 52.0428 39.1382 51.8627 39.38C51.4828 39.8903 51.0644 40.3721 50.6578 40.8622C50.4274 41.14 50.0741 41.3085 49.8883 41.7179C51.2255 42.3889 52.3445 43.3297 53.4344 44.4727C53.4468 43.1052 53.4899 41.8805 53.2368 40.5863ZM10.7786 39.4145C10.6083 39.1269 10.4252 39.0964 10.1872 39.3552C10.016 39.5412 9.83625 39.7144 9.71911 39.9438C9.03164 41.2901 9.28006 42.7185 9.34781 44.131C9.34829 44.141 9.3739 44.1498 9.45143 44.2021C10.4439 43.268 11.5056 42.3845 12.8201 41.6691C11.997 41.0054 11.4237 40.2242 10.7786 39.4145ZM53.5763 48.3129C53.721 48.2094 53.9538 48.2829 54.0606 48.0665C53.7389 47.3402 53.1093 46.8666 52.5804 46.3106C52.5003 46.2263 52.3897 46.1622 52.261 46.2205C51.336 46.64 50.4484 47.134 49.7714 47.8999C49.3598 48.3656 49.5488 48.768 50.1453 48.8778C50.5728 48.9565 51.0129 48.8686 51.4394 48.9903C51.9917 49.148 52.5118 49.159 52.9481 48.6749C53.0872 48.5206 53.3186 48.4495 53.5763 48.3129ZM9.71137 46.7589C9.39515 47.1832 9.07893 47.6074 8.74083 48.061C9.21241 48.3273 9.66243 48.5046 10.0124 48.8001C10.386 49.1156 10.7583 49.0928 11.175 49.032C11.6224 48.9667 12.0706 48.9014 12.5207 48.8614C13.1826 48.8026 13.3113 48.6171 13.1125 47.9768C13.0736 47.8516 12.9853 47.7844 12.8938 47.7125C12.3119 47.2551 11.7011 46.84 11.0469 46.4933C10.3286 46.1127 10.3256 46.1184 9.71137 46.7589ZM27.7181 51.6271C27.354 51.6354 26.9899 51.6457 26.6253 51.5884C28.111 52.0423 29.6058 52.4266 31.0784 52.8826C31.5384 53.025 31.9418 53.0427 32.3868 52.9065C33.0284 52.7101 33.6791 52.5435 34.3244 52.3587C35.0791 52.1425 35.8322 51.9205 36.586 51.701C33.6449 51.8154 30.7236 51.6754 27.7181 51.6271ZM16.3509 46.516C16.3669 46.0973 16.3768 45.6783 16.4 45.26C16.4463 44.4267 16.2475 44.1504 15.3941 43.911C15.1132 45.4854 14.9898 47.0673 15.0179 48.6587C15.2737 48.8307 15.5592 48.7501 15.8166 48.8193C16.1409 48.9064 16.3172 48.802 16.3086 48.4157C16.2951 47.8109 16.3294 47.2052 16.3509 46.516ZM47.5217 44.9116C47.4471 44.5734 47.3724 44.2351 47.2793 43.8132C46.9208 44.0667 46.3446 44.0743 46.3883 44.5881C46.4994 45.895 46.5171 47.2011 46.5245 48.5095C46.5252 48.6388 46.4952 48.7834 46.6629 48.9058C46.7594 48.9058 46.8912 48.9069 47.023 48.9057C47.76 48.8988 47.7617 48.8719 47.7805 48.1434C47.8079 47.0818 47.5763 46.0429 47.5217 44.9116ZM13.0211 46.3892C13.0999 46.423 13.1593 46.3929 13.1666 46.3146C13.2567 45.3604 13.2863 44.3994 13.5884 43.3734C12.6855 43.9516 11.8942 44.4631 11.195 45.2164C11.8623 45.5491 12.4199 45.9459 13.0211 46.3892ZM51.0761 44.8355C50.5945 44.3087 49.9886 43.9742 49.2855 43.6174C49.4167 44.6163 49.3949 45.5313 49.6091 46.5233C50.1927 46.0023 50.8159 45.6882 51.3676 45.3198C51.3501 45.0915 51.2245 44.996 51.0761 44.8355ZM33.548 70.81C33.5722 70.2631 33.4565 70.1393 32.9544 70.2572C32.0766 70.4632 31.2267 70.5117 30.3519 70.1762C29.7032 69.9274 29.5881 70.0534 29.4196 70.8982C30.7848 70.8623 32.1375 70.9755 33.548 70.81Z" fill="url(#paint0_linear_1837_7253)"/>
<path d="M0.264103 10.754C0.510591 10.5243 0.79459 10.4713 1.06853 10.3932C1.62012 10.236 1.95662 9.86692 2.09499 9.31909C2.18955 8.94472 2.25492 8.56296 2.35063 8.18892C2.43362 7.86465 2.57621 7.5914 2.97732 7.57133C3.36006 7.55217 3.57236 7.75313 3.69838 8.08255C3.7772 8.28857 3.80443 8.50334 3.82067 8.72386C3.88751 9.6309 4.3557 10.2169 5.24122 10.459C5.3706 10.4944 5.50443 10.5249 5.624 10.5828C6.10877 10.8177 6.153 11.2977 5.72848 11.6262C5.53687 11.7744 5.3166 11.8437 5.08401 11.8977C4.32336 12.0745 3.89709 12.5453 3.81891 13.3337C3.79593 13.5654 3.74127 13.8027 3.65204 14.0169C3.54664 14.2701 3.37035 14.4946 3.05909 14.4961C2.73477 14.4977 2.53515 14.3087 2.42409 14.0098C2.31793 13.7241 2.25129 13.4331 2.21144 13.1297C2.12111 12.4418 1.78056 12.0857 1.11035 11.9197C0.91534 11.8714 0.717265 11.8215 0.534338 11.7411C0.0547444 11.5303 -0.0211492 11.2653 0.264103 10.754ZM2.40001 11.1551C2.60573 11.3645 2.81146 11.5738 3.03255 11.7988C3.26646 11.5418 3.47378 11.314 3.69782 11.0678C3.48384 10.8412 3.28263 10.6281 3.13683 10.4738C2.87318 10.6956 2.63287 10.8977 2.40001 11.1551Z" fill="url(#paint1_linear_1837_7253)"/>
<path d="M53.6591 5.36194C53.877 4.95672 54.0515 4.5823 54.0658 4.14233C54.0721 3.95001 54.152 3.74288 54.2519 3.5741C54.5315 3.10188 55.0625 3.12027 55.3341 3.59883C55.4514 3.80551 55.5076 4.02759 55.535 4.26838C55.6153 4.97509 55.8533 5.57116 56.6476 5.76688C56.9929 5.85195 57.3691 5.97747 57.328 6.44106C57.2865 6.90901 56.9293 7.06398 56.5187 7.13126C55.9966 7.21682 55.6851 7.53243 55.555 8.03374C55.5003 8.24471 55.479 8.46495 55.4166 8.6732C55.3327 8.9529 55.1544 9.13537 54.8382 9.14826C54.5286 9.16089 54.3218 9.01562 54.2061 8.74159C54.1476 8.60319 54.1014 8.45455 54.0806 8.30621C53.9822 7.60611 53.6212 7.18608 52.8946 7.07455C52.5647 7.02391 52.2958 6.81123 52.2593 6.44475C52.2191 6.04217 52.5425 5.90511 52.8348 5.7721C53.1048 5.64927 53.442 5.67153 53.6591 5.36194ZM54.6606 6.72654C54.9521 6.90915 55.0312 6.59935 55.0845 6.47751C55.1893 6.23761 54.9781 6.10859 54.8019 5.99394C54.4251 6.34041 54.4251 6.34041 54.6606 6.72654Z" fill="url(#paint2_linear_1837_7253)"/>
<path d="M59.4492 10.1714C59.4908 10.7843 59.6948 11.2059 60.3297 11.3369C60.6534 11.4036 60.9227 11.6091 60.924 11.9957C60.9254 12.3812 60.6571 12.6066 60.3368 12.6592C59.6893 12.7655 59.4252 13.1458 59.3724 13.7512C59.3388 14.1366 59.1248 14.3862 58.7349 14.4126C58.3243 14.4403 58.0886 14.1472 58.0406 13.8052C57.9463 13.1338 57.6759 12.7275 56.9431 12.6622C56.6268 12.6341 56.4293 12.3326 56.4077 12.0039C56.3859 11.6737 56.6193 11.4215 56.8928 11.3677C57.6694 11.215 57.8977 10.6909 58.0059 10.0031C58.0896 9.4706 58.7566 9.28918 59.1545 9.66187C59.2923 9.7909 59.3799 9.95469 59.4492 10.1714ZM58.9488 11.8876C58.9208 11.7242 58.8079 11.6446 58.6592 11.5856C58.556 11.7307 58.2556 11.7966 58.4969 12.0527C58.7072 12.276 58.8058 12.0638 58.9488 11.8876Z" fill="url(#paint3_linear_1837_7253)"/>
<path d="M43.0801 42.646C41.1316 43.5768 39.0955 44.1246 37.0331 44.537C34.5737 45.0289 32.0768 45.1794 29.5653 45.045C28.0873 44.9658 26.6127 44.8341 25.1657 44.541C23.0735 44.1172 21.0437 43.4701 19.1022 42.5682C16.341 41.2856 14.0868 39.3549 12.305 36.9291C10.8785 34.9871 9.96316 32.7773 9.63445 30.3559C9.34532 28.226 9.43994 26.1099 9.68845 23.979C10.0704 20.7037 11.3237 17.8157 13.3936 15.2845C15.0137 13.3035 16.9715 11.7057 19.1861 10.4064C21.8123 8.86555 24.6557 7.96818 27.6368 7.5082C29.7915 7.17573 31.9613 7.23206 34.1309 7.51784C36.1266 7.78073 38.0702 8.22935 39.9624 8.90316C41.7488 9.53928 43.3901 10.4538 44.9333 11.5504C46.6617 12.7785 48.179 14.2272 49.4409 15.9299C51.3468 18.5016 52.595 21.3509 52.9999 24.5462C53.1904 26.0502 53.2764 27.5611 53.1299 29.0689C52.817 32.29 51.727 35.2043 49.6097 37.6995C48.1127 39.4635 46.3888 40.9484 44.3483 42.0507C43.9494 42.2662 43.5276 42.4397 43.0801 42.646ZM37.2899 15.7435C34.3797 15.0818 31.44 14.815 28.462 15.1061C26.8859 15.2602 25.3216 15.4883 23.7955 15.9316C23.5466 16.0039 23.3953 15.9848 23.0487 16.1085C21.8356 16.5416 18.4563 18.1559 17.3299 18.9665C15.1637 20.5254 14.9741 20.9711 12.9812 23.0496C13.5343 22.3749 12.6346 23.4111 12.9812 23.0496C11.915 24.3501 11.3394 25.7484 11.3627 27.4766C11.3957 29.9297 11.8492 32.2516 13.0383 34.3935C14.8118 37.588 17.4621 39.7857 20.8454 41.1535C23.9287 42.4 27.1379 42.9771 30.4407 43.0828C32.8033 43.1584 35.1358 42.9227 37.4564 42.4245C39.6516 41.9531 41.7188 41.1844 43.6938 40.147C45.199 39.3564 46.492 38.2832 47.6226 37.02C48.3972 36.1545 49.1555 35.2636 49.6671 34.2141C50.4213 32.6671 50.9864 31.0557 51.154 29.3223C51.2565 28.2624 51.2121 27.2038 51.1986 26.1445C51.1968 26.003 51.111 25.8558 51.0415 25.723C49.7676 23.2908 47.9043 21.3588 45.7546 19.7112C43.2553 17.7958 40.4348 16.507 37.2899 15.7435ZM30.5351 9.28405C28.4527 9.33267 26.4047 9.64249 24.4154 10.2423C21.1808 11.2176 18.3577 12.911 15.9761 15.3136C14.5177 16.7849 13.4008 18.4908 12.523 20.5065C13.5236 19.402 14.5374 18.4968 15.6378 17.6982C19.7174 14.7375 24.3702 13.3946 29.3259 13.0705C32.8837 12.8378 36.3811 13.3416 39.7868 14.4359C43.5658 15.6501 46.8501 17.6455 49.5744 20.5442C49.7105 20.6891 49.83 20.8735 50.1161 20.9631C49.9985 20.6849 49.9244 20.4798 49.8279 20.2858C48.6845 17.9897 47.2167 15.9538 45.2357 14.2844C43.053 12.445 40.5992 11.1681 37.8754 10.3394C35.4986 9.61623 33.077 9.29934 30.5351 9.28405Z" fill="url(#paint4_linear_1837_7253)"/>
<path d="M44.5371 7.93618C46.0903 8.80047 47.4766 9.82898 48.7315 11.034C49.568 11.8372 50.3772 12.6649 50.999 13.6542C51.0437 13.7252 51.0958 13.792 51.1364 13.8652C51.3996 14.3406 51.3413 14.834 50.9998 15.0411C50.6811 15.2343 50.2535 15.073 49.9255 14.6676C48.188 12.5205 46.1507 10.7073 43.8246 9.21767C43.6688 9.11795 43.4989 9.03258 43.3645 8.90913C43.1213 8.68585 42.9091 8.42579 43.1133 8.0726C43.3228 7.71045 43.6475 7.56861 44.0553 7.69438C44.2131 7.74305 44.3553 7.84231 44.5371 7.93618Z" fill="url(#paint5_linear_1837_7253)"/>
<path d="M14.4163 10.9044C14.8482 10.1024 15.6008 9.67671 16.2249 9.12496C16.6502 8.749 17.1153 8.40838 17.6341 8.15876C17.9383 8.01237 18.2216 8.07068 18.482 8.27168C18.6954 8.43653 18.7146 8.66209 18.6875 8.90839C18.6669 9.0946 18.5592 9.22189 18.4192 9.31585C17.3879 10.0081 16.395 10.7494 15.4658 11.5754C15.2453 11.7713 14.991 11.8058 14.7187 11.6587C14.4239 11.4993 14.3256 11.2614 14.4163 10.9044Z" fill="url(#paint6_linear_1837_7253)"/>
<path d="M27.4644 4.93755C27.7831 4.84209 28.0664 4.8232 28.3533 4.85382C28.7142 4.89236 28.9617 5.08784 29.0014 5.44679C29.0409 5.80414 28.8455 6.08356 28.5049 6.17385C28.1022 6.28062 27.6825 6.34368 27.2664 6.37344C26.9603 6.39532 26.7112 6.2234 26.6003 5.92704C26.4833 5.61438 26.6476 5.37486 26.8703 5.17627C27.0246 5.0386 27.2238 4.98818 27.4644 4.93755Z" fill="url(#paint7_linear_1837_7253)"/>
<path d="M13.3694 11.9626C13.8231 12.1548 13.9863 12.4447 13.8059 12.8908C13.5775 13.4555 13.0439 13.8787 12.623 13.8201C12.2858 13.7731 12.0394 13.3922 12.1856 13.0594C12.4122 12.5436 12.757 12.1211 13.3694 11.9626Z" fill="url(#paint8_linear_1837_7253)"/>
<path d="M31.4183 5.2991C31.4434 5.70435 31.232 5.90773 30.9108 5.97936C30.5713 6.05504 30.2386 6.01353 30.0008 5.70991C29.8303 5.49224 29.8882 5.2584 30.0008 5.0482C30.1334 4.80055 30.3708 4.74151 30.643 4.74747C31.0153 4.75562 31.2962 4.87611 31.4183 5.2991Z" fill="url(#paint9_linear_1837_7253)"/>
</g>
<path d="M107.4 61C106.675 61 106.056 60.808 105.544 60.424C105.075 59.9973 104.84 59.5493 104.84 59.08V14.216C104.84 13.6613 105.075 13.2133 105.544 12.872C106.056 12.5307 106.675 12.36 107.4 12.36C108.168 12.36 108.808 12.5307 109.32 12.872C109.875 13.2133 110.152 13.6613 110.152 14.216V44.168L124.744 30.984C125.128 30.6853 125.512 30.536 125.896 30.536C126.323 30.536 126.728 30.664 127.112 30.92C127.539 31.1333 127.88 31.432 128.136 31.816C128.435 32.2 128.584 32.6053 128.584 33.032C128.584 33.2453 128.541 33.48 128.456 33.736C128.371 33.9493 128.221 34.1413 128.008 34.312L119.112 42.184L129.736 57.608C129.949 57.9067 130.056 58.2267 130.056 58.568C130.056 58.9947 129.907 59.4213 129.608 59.848C129.309 60.2747 128.925 60.616 128.456 60.872C128.029 61.128 127.581 61.256 127.112 61.256C126.515 61.256 126.024 60.9787 125.64 60.424L115.464 45.512L110.152 50.248V59.08C110.152 59.5493 109.875 59.9973 109.32 60.424C108.808 60.808 108.168 61 107.4 61ZM148.557 61.512C146.296 61.512 144.205 60.936 142.285 59.784C140.365 58.5893 138.829 57.0533 137.677 55.176C136.525 53.2987 135.949 51.272 135.949 49.096V42.568C135.949 40.392 136.504 38.3867 137.613 36.552C138.765 34.6747 140.301 33.16 142.221 32.008C144.141 30.856 146.253 30.28 148.557 30.28C150.818 30.28 152.909 30.856 154.829 32.008C156.749 33.1173 158.285 34.5893 159.437 36.424C160.632 38.2587 161.229 40.3067 161.229 42.568V49.096C161.229 51.2293 160.632 53.256 159.437 55.176C158.285 57.0533 156.749 58.5893 154.829 59.784C152.909 60.936 150.818 61.512 148.557 61.512ZM148.557 56.712C149.922 56.712 151.138 56.3493 152.205 55.624C153.314 54.8987 154.21 53.96 154.893 52.808C155.576 51.6133 155.917 50.376 155.917 49.096V42.568C155.917 41.3307 155.576 40.136 154.893 38.984C154.253 37.832 153.378 36.8933 152.269 36.168C151.16 35.4427 149.922 35.08 148.557 35.08C147.192 35.08 145.954 35.4427 144.845 36.168C143.736 36.8933 142.861 37.832 142.221 38.984C141.581 40.136 141.261 41.3307 141.261 42.568V49.096C141.261 50.376 141.581 51.6133 142.221 52.808C142.861 53.96 143.736 54.8987 144.845 55.624C145.954 56.3493 147.192 56.712 148.557 56.712ZM173.425 61C172.657 61 172.017 60.808 171.505 60.424C171.036 59.9973 170.801 59.5493 170.801 59.08V32.52C170.801 31.9653 171.036 31.5173 171.505 31.176C172.017 30.8347 172.657 30.664 173.425 30.664C174.108 30.664 174.684 30.8347 175.153 31.176C175.622 31.5173 175.857 31.9653 175.857 32.52V35.144C176.582 33.9067 177.649 32.7973 179.057 31.816C180.465 30.792 182.236 30.28 184.369 30.28C186.417 30.28 188.209 30.8773 189.745 32.072C191.281 33.2667 192.412 34.8027 193.137 36.68C194.246 34.504 195.676 32.904 197.425 31.88C199.174 30.8133 200.966 30.28 202.801 30.28C204.678 30.28 206.449 30.7707 208.113 31.752C209.82 32.6907 211.185 34.0773 212.209 35.912C213.276 37.7467 213.809 39.9653 213.809 42.568V59.08C213.809 59.5493 213.532 59.9973 212.977 60.424C212.465 60.808 211.846 61 211.121 61C210.396 61 209.777 60.808 209.265 60.424C208.753 59.9973 208.497 59.5493 208.497 59.08V42.568C208.497 40.9467 208.156 39.5813 207.473 38.472C206.833 37.3627 205.98 36.5307 204.913 35.976C203.889 35.3787 202.844 35.08 201.777 35.08C200.625 35.08 199.537 35.3787 198.513 35.976C197.489 36.5733 196.636 37.4053 195.953 38.472C195.27 39.5387 194.929 40.84 194.929 42.376V59.144C194.929 59.784 194.652 60.2533 194.097 60.552C193.542 60.8507 192.924 61 192.241 61C191.644 61 191.046 60.8507 190.449 60.552C189.894 60.2533 189.617 59.784 189.617 59.144V42.44C189.617 40.9893 189.297 39.7093 188.657 38.6C188.06 37.4907 187.249 36.6373 186.225 36.04C185.244 35.4 184.156 35.08 182.961 35.08C181.809 35.08 180.7 35.3787 179.633 35.976C178.609 36.5733 177.756 37.4267 177.073 38.536C176.433 39.6027 176.113 40.9467 176.113 42.568V59.08C176.113 59.5493 175.836 59.9973 175.281 60.424C174.769 60.808 174.15 61 173.425 61ZM226.875 22.344C225.979 22.344 225.19 22.0453 224.507 21.448C223.867 20.808 223.547 20.0827 223.547 19.272C223.547 18.4613 223.867 17.7573 224.507 17.16C225.19 16.5627 225.979 16.264 226.875 16.264C227.814 16.264 228.582 16.5627 229.179 17.16C229.819 17.7573 230.139 18.4613 230.139 19.272C230.139 20.0827 229.819 20.808 229.179 21.448C228.582 22.0453 227.814 22.344 226.875 22.344ZM226.875 61C226.107 61 225.467 60.808 224.955 60.424C224.486 59.9973 224.251 59.5493 224.251 59.08V32.52C224.251 31.9653 224.486 31.5173 224.955 31.176C225.467 30.8347 226.107 30.664 226.875 30.664C227.6 30.664 228.219 30.8347 228.731 31.176C229.286 31.5173 229.563 31.9653 229.563 32.52V59.08C229.563 59.5493 229.286 59.9973 228.731 60.424C228.219 60.808 227.6 61 226.875 61ZM252.04 61.512C249.096 61.512 246.664 60.9573 244.744 59.848C242.866 58.7387 241.458 57.2667 240.52 55.432C239.624 53.5547 239.176 51.4427 239.176 49.096V42.696C239.176 40.392 239.624 38.3013 240.52 36.424C241.458 34.5467 242.866 33.0533 244.744 31.944C246.664 30.8347 249.074 30.28 251.976 30.28C253.853 30.28 255.496 30.5147 256.904 30.984C258.312 31.4533 259.4 32.0293 260.168 32.712C260.936 33.3947 261.32 34.056 261.32 34.696C261.32 35.0373 261.213 35.4213 261 35.848C260.829 36.232 260.573 36.5733 260.232 36.872C259.933 37.1707 259.57 37.32 259.144 37.32C258.717 37.32 258.248 37.128 257.736 36.744C257.266 36.36 256.605 35.9973 255.752 35.656C254.941 35.272 253.789 35.08 252.296 35.08C249.693 35.08 247.73 35.7627 246.408 37.128C245.128 38.4933 244.488 40.3493 244.488 42.696V49.096C244.488 51.4427 245.128 53.2987 246.408 54.664C247.73 56.0293 249.714 56.712 252.36 56.712C253.896 56.712 255.09 56.52 255.944 56.136C256.797 55.7093 257.458 55.3253 257.928 54.984C258.44 54.6 258.93 54.408 259.4 54.408C259.869 54.408 260.274 54.5573 260.616 54.856C260.957 55.112 261.213 55.432 261.384 55.816C261.597 56.2 261.704 56.584 261.704 56.968C261.704 57.608 261.298 58.2907 260.488 59.016C259.677 59.6987 258.546 60.296 257.096 60.808C255.645 61.2773 253.96 61.512 252.04 61.512ZM272.902 61C272.134 61 271.494 60.808 270.982 60.424C270.512 59.9973 270.278 59.5493 270.278 59.08V14.216C270.278 13.6613 270.512 13.2133 270.982 12.872C271.494 12.5307 272.134 12.36 272.902 12.36C273.627 12.36 274.246 12.5307 274.758 12.872C275.312 13.2133 275.59 13.6613 275.59 14.216V35.144C276.272 33.9067 277.296 32.7973 278.662 31.816C280.07 30.792 281.819 30.28 283.91 30.28C285.958 30.28 287.835 30.856 289.542 32.008C291.248 33.1173 292.614 34.5893 293.638 36.424C294.662 38.2587 295.174 40.3067 295.174 42.568V59.08C295.174 59.72 294.896 60.2107 294.342 60.552C293.787 60.8507 293.168 61 292.486 61C291.846 61 291.248 60.8507 290.694 60.552C290.139 60.2107 289.862 59.72 289.862 59.08V42.568C289.862 41.3307 289.52 40.136 288.838 38.984C288.155 37.832 287.259 36.8933 286.15 36.168C285.083 35.4427 283.888 35.08 282.566 35.08C281.414 35.08 280.304 35.4 279.238 36.04C278.171 36.6373 277.296 37.4907 276.614 38.6C275.931 39.6667 275.59 40.9893 275.59 42.568V59.08C275.59 59.5493 275.312 59.9973 274.758 60.424C274.246 60.808 273.627 61 272.902 61ZM308.225 22.344C307.329 22.344 306.54 22.0453 305.857 21.448C305.217 20.808 304.897 20.0827 304.897 19.272C304.897 18.4613 305.217 17.7573 305.857 17.16C306.54 16.5627 307.329 16.264 308.225 16.264C309.164 16.264 309.932 16.5627 310.529 17.16C311.169 17.7573 311.489 18.4613 311.489 19.272C311.489 20.0827 311.169 20.808 310.529 21.448C309.932 22.0453 309.164 22.344 308.225 22.344ZM308.225 61C307.457 61 306.817 60.808 306.305 60.424C305.836 59.9973 305.601 59.5493 305.601 59.08V32.52C305.601 31.9653 305.836 31.5173 306.305 31.176C306.817 30.8347 307.457 30.664 308.225 30.664C308.95 30.664 309.569 30.8347 310.081 31.176C310.636 31.5173 310.913 31.9653 310.913 32.52V59.08C310.913 59.5493 310.636 59.9973 310.081 60.424C309.569 60.808 308.95 61 308.225 61Z" fill="url(#paint10_linear_1837_7253)"/>
<defs>
<linearGradient id="paint0_linear_1837_7253" x1="31.2776" y1="0.0622559" x2="31.2776" y2="74.8328" gradientUnits="userSpaceOnUse">
<stop stop-color="#696B87"/>
<stop offset="0.96" stop-color="#696B87"/>
<stop offset="1" stop-color="#BBA0A7"/>
</linearGradient>
<linearGradient id="paint1_linear_1837_7253" x1="3.05858" y1="7.57007" x2="3.05858" y2="14.4962" gradientUnits="userSpaceOnUse">
<stop stop-color="#696B87"/>
<stop offset="0.96" stop-color="#696B87"/>
<stop offset="1" stop-color="#BBA0A7"/>
</linearGradient>
<linearGradient id="paint2_linear_1837_7253" x1="54.7935" y1="3.22974" x2="54.7935" y2="9.14902" gradientUnits="userSpaceOnUse">
<stop stop-color="#696B87"/>
<stop offset="0.96" stop-color="#696B87"/>
<stop offset="1" stop-color="#BBA0A7"/>
</linearGradient>
<linearGradient id="paint3_linear_1837_7253" x1="58.6651" y1="9.46533" x2="58.6651" y2="14.4144" gradientUnits="userSpaceOnUse">
<stop stop-color="#696B87"/>
<stop offset="0.96" stop-color="#696B87"/>
<stop offset="1" stop-color="#BBA0A7"/>
</linearGradient>
<linearGradient id="paint4_linear_1837_7253" x1="31.3299" y1="7.28052" x2="31.3299" y2="45.0918" gradientUnits="userSpaceOnUse">
<stop stop-color="#696B87"/>
<stop offset="0.96" stop-color="#696B87"/>
<stop offset="1" stop-color="#BBA0A7"/>
</linearGradient>
<linearGradient id="paint5_linear_1837_7253" x1="47.166" y1="7.64941" x2="47.166" y2="15.1224" gradientUnits="userSpaceOnUse">
<stop stop-color="#696B87"/>
<stop offset="0.96" stop-color="#696B87"/>
<stop offset="1" stop-color="#BBA0A7"/>
</linearGradient>
<linearGradient id="paint6_linear_1837_7253" x1="16.5404" y1="8.07715" x2="16.5404" y2="11.7495" gradientUnits="userSpaceOnUse">
<stop stop-color="#696B87"/>
<stop offset="0.96" stop-color="#696B87"/>
<stop offset="1" stop-color="#BBA0A7"/>
</linearGradient>
<linearGradient id="paint7_linear_1837_7253" x1="27.784" y1="4.84033" x2="27.784" y2="6.3753" gradientUnits="userSpaceOnUse">
<stop stop-color="#696B87"/>
<stop offset="0.96" stop-color="#696B87"/>
<stop offset="1" stop-color="#BBA0A7"/>
</linearGradient>
<linearGradient id="paint8_linear_1837_7253" x1="13.0102" y1="11.9626" x2="13.0102" y2="13.8255" gradientUnits="userSpaceOnUse">
<stop stop-color="#696B87"/>
<stop offset="0.96" stop-color="#696B87"/>
<stop offset="1" stop-color="#BBA0A7"/>
</linearGradient>
<linearGradient id="paint9_linear_1837_7253" x1="30.657" y1="4.74707" x2="30.657" y2="6.0122" gradientUnits="userSpaceOnUse">
<stop stop-color="#696B87"/>
<stop offset="0.96" stop-color="#696B87"/>
<stop offset="1" stop-color="#BBA0A7"/>
</linearGradient>
<linearGradient id="paint10_linear_1837_7253" x1="101" y1="37.5" x2="315" y2="38" gradientUnits="userSpaceOnUse">
<stop stop-color="#5F6483"/>
<stop offset="1" stop-color="#BCA1A7"/>
</linearGradient>
<clipPath id="clip0_1837_7253">
<rect width="61" height="75" fill="white"/>
</clipPath>
</defs>
</svg>
