<svg xmlns="http://www.w3.org/2000/svg" version="1.1" xmlns:xlink="http://www.w3.org/1999/xlink" xmlns:svgjs="http://svgjs.com/svgjs" width="1000" height="1000"><rect width="1000" height="1000" rx="200" ry="200" fill="#f7f5ee"></rect><g transform="matrix(3.673469387755102,0,0,3.673469387755102,132.5603570743483,50.457993813923395)"><svg xmlns="http://www.w3.org/2000/svg" version="1.1" xmlns:xlink="http://www.w3.org/1999/xlink" xmlns:svgjs="http://svgjs.com/svgjs" width="200" height="245"><svg width="200" height="245" viewBox="0 0 200 245" fill="none" xmlns="http://www.w3.org/2000/svg">
<g clip-path="url(#clip0_1651_7695)">
<path d="M27.7943 116.873C26.5064 114.535 25.7652 112.107 24.8981 109.735C24.5908 108.894 24.1315 108.516 23.2743 108.375C15.9101 107.166 12.1846 102.302 10.5621 95.5169C8.88041 88.4842 9.29705 81.4147 11.0998 74.4921C12.222 70.1826 14.5507 66.4831 18.9283 64.6027C19.7986 64.2289 20.0201 63.6389 20.1406 62.8537C21.3249 55.1365 24.2676 48.074 28.2303 41.3969C32.523 34.1639 37.4972 27.4304 43.8059 21.8242C50.688 15.7086 58.4142 10.8374 66.988 7.36116C72.0495 5.30901 77.1912 3.49262 82.5404 2.33813C91.318 0.443712 100.166 -0.23373 109.154 0.482359C115.456 0.984428 121.652 2.04012 127.681 3.76618C135.87 6.11051 143.642 9.47564 150.795 14.2316C157.066 18.4009 162.649 23.2895 167.585 28.9253C172.761 34.8336 176.942 41.3674 180.152 48.5549C182.227 53.1993 183.959 57.9061 184.804 62.9276C184.917 63.5972 185.082 64.3002 185.914 64.6243C190.924 66.5753 193.005 70.7935 194.272 75.5698C195.292 79.4098 195.646 83.3421 195.594 87.3098C195.524 92.7612 194.709 98.0336 191.455 102.611C189.19 105.797 186.148 107.882 182.177 108.357C181.084 108.488 180.583 108.931 180.27 110C179.12 113.918 177.555 117.664 175.291 121.101C174.734 121.946 174.403 122.806 175.611 123.603C180.52 126.84 181.421 131.839 181.456 137.179C181.488 142.002 181.798 146.822 181.54 151.646C181.511 152.177 181.861 152.578 182.167 152.961C185.38 156.985 188.071 161.327 189.972 166.11C192.289 171.936 193.922 177.958 193.256 184.274C192.377 192.609 187.215 200.82 177.212 202.323C175.828 202.531 175.375 202.86 175.736 204.403C176.344 207.011 176.671 209.701 176.646 212.393C176.629 214.203 175.737 215.246 173.934 215.275C169.258 215.35 164.579 215.216 159.901 215.219C157.004 215.221 154.071 214.76 151.24 215.853C150.694 216.064 150.162 216.23 149.989 216.802C148.334 222.281 146.383 227.636 143.126 232.77C144.737 232.939 146.07 233.165 147.409 233.202C152.151 233.332 156.827 233.979 161.462 234.932C162.592 235.165 163.652 235.832 163.709 237.056C163.77 238.363 162.954 239.27 161.626 239.684C157.815 240.871 153.83 241.005 149.929 241.636C145.391 242.37 140.837 243.034 136.244 243.316C130.544 243.665 124.852 244.087 119.132 244.187C114.787 244.263 110.434 244.388 106.088 244.437C100.257 244.502 94.4219 244.371 88.5911 244.22C83.3741 244.084 78.1578 243.861 72.9467 243.577C68.0008 243.307 63.0857 242.681 58.1774 242.027C53.8812 241.454 49.5562 241.069 45.33 240.031C44.5594 239.842 43.8253 239.622 43.2444 239.103C42.6068 238.534 41.6949 238.017 42.015 236.958C42.3575 235.824 43.1888 235.116 44.381 234.897C48.8099 234.085 53.2594 233.438 57.7618 233.184C59.3468 233.095 60.9267 232.917 62.6186 232.77C62.4337 231.849 61.9323 231.208 61.4905 230.53C59.6774 227.749 58.3878 224.741 57.3075 221.602C56.7733 220.05 56.317 218.48 55.8043 216.924C55.2505 215.244 53.6482 215.299 52.3503 215.273C48.4325 215.196 44.5111 215.334 40.5912 215.327C38.233 215.322 35.8736 215.807 33.5157 215.307C31.5807 214.896 30.8752 214.115 30.8691 212.131C30.8616 209.704 31.2614 207.313 31.6704 204.927C31.7808 204.283 31.8958 203.64 32.0245 202.907C29.8263 202.329 27.6995 201.884 25.6521 201.048C19.4922 198.534 16.222 193.632 14.351 187.662C12.278 181.048 13.3227 174.524 15.4832 168.095C17.321 162.626 20.0275 157.631 23.6014 153.107C24.2727 152.258 24.3358 151.445 24.2663 150.4C23.8661 144.385 23.5688 138.34 24.4303 132.361C24.9407 128.818 26.5778 125.65 29.7387 123.567C30.7086 122.927 30.7755 122.234 30.1624 121.359C29.2078 119.996 28.5437 118.483 27.7943 116.873ZM54.14 166.213C48.9647 165.045 43.8139 166.018 38.6591 166.411C37.8705 166.472 37.7792 167.03 37.9487 167.752C38.5264 170.211 39.1188 172.67 39.5579 175.155C39.7763 176.391 40.3259 177.039 41.4995 177.51C46.5546 179.541 49.0848 184.607 49.3015 189.669C49.456 193.274 46.1505 195.243 45.8451 198.498C45.8298 198.661 45.512 198.778 45.3817 198.951C43.9546 200.844 41.6922 201.266 39.7005 202.165C39.2145 202.384 38.5387 202.402 38.4341 203.08C38.1456 204.95 37.9006 206.826 37.6348 208.727C40.0623 209.551 42.3751 208.796 44.6646 208.785C50.5348 208.756 56.3152 208.853 61.9618 210.937C64.8037 211.986 67.5858 213.152 70.3812 214.297C71.8044 214.88 73.3411 214.561 74.7793 215.007C82.1469 217.292 89.5798 219.384 96.878 221.869C102.177 223.674 107.206 223.694 112.441 221.667C116.906 219.937 121.546 218.654 126.119 217.203C132.053 215.319 137.994 213.459 143.936 211.599C146.567 210.776 149.058 209.533 151.815 209.085C155.501 208.487 159.207 208.875 162.902 208.8C165.308 208.751 167.72 209.118 170.16 208.783C170.3 207.057 169.349 205.623 169.29 204.042C169.248 202.924 168.669 202.395 167.668 202.049C165.675 201.36 163.781 200.463 162.306 198.893C157.378 193.647 158.095 188.295 159.919 183.184C160.918 180.385 163.229 178.705 165.897 177.551C166.586 177.252 167.255 176.993 167.418 176.196C168.073 172.99 168.7 169.778 169.351 166.502C168.971 166.409 168.713 166.303 168.45 166.287C161.329 165.857 154.251 165.633 147.256 167.653C140.211 169.688 132.94 171.022 126.022 173.396C119.696 175.568 113.197 177.083 106.874 179.204C105.362 179.712 103.725 179.828 102.321 179.398C97.1655 177.82 91.9197 176.582 86.7494 175.076C82.7318 173.906 78.702 172.749 74.678 171.625C70.8709 170.562 67.0228 169.608 63.2009 168.562C60.2872 167.763 57.4265 166.71 54.14 166.213ZM99.3855 6.79653C98.0082 6.88315 96.6302 6.95954 95.2537 7.05801C84.5422 7.82432 74.3962 10.6794 64.79 15.4072C55.2999 20.0779 47.163 26.4773 40.6084 34.7847C34.0808 43.058 28.7877 51.965 26.5318 62.4174C26.2967 63.5068 26.6165 63.8628 27.4966 64.2616C30.2943 65.5292 31.385 67.5514 30.6077 70.5268C28.9346 76.9308 28.7211 83.4481 28.7328 90.0051C28.7449 96.7879 29.195 103.498 31.613 109.929C35.6979 120.793 42.7866 129.39 51.8804 136.456C59.2673 142.195 67.7324 145.721 76.6828 148.146C86.0153 150.674 95.5492 151.629 105.214 151.313C112.173 151.086 119.048 150.366 125.851 148.732C132.329 147.176 138.655 145.248 144.508 142.089C156.956 135.37 166.413 125.732 172.532 112.936C174.358 109.118 175.511 105.106 175.942 100.925C176.442 96.0739 176.63 91.2054 176.418 86.3169C176.209 81.4939 176.024 76.701 174.829 71.9717C174.002 68.7003 174.145 65.5416 177.932 63.8971C178.589 63.6116 178.45 63.078 178.366 62.4926C177.872 59.0325 176.556 55.8196 175.26 52.6269C173.625 48.5982 171.326 44.9211 168.866 41.3192C164.108 34.3529 158.423 28.252 151.792 23.0811C145.55 18.213 138.647 14.433 131.137 11.7944C124.928 9.61279 118.596 8.00998 112.028 7.35989C107.91 6.95231 103.787 6.78525 99.3855 6.79653ZM26.6105 194.226C30.4311 196.617 34.4962 197.277 38.8006 195.8C41.5023 194.873 43.3669 191.505 43.0936 188.281C42.8576 185.497 41.1987 184.08 37.6839 183.53C35.9345 183.257 34.2636 182.745 32.7767 181.688C29.9217 179.657 30.044 177.821 33.1946 176.244C33.278 176.202 33.316 176.071 33.4202 175.913C33.1848 174.852 32.9379 173.74 32.6781 172.569C31.4079 172.531 30.3728 173.023 29.3683 173.583C27.5257 174.61 25.8731 175.883 24.3885 177.385C23.8328 177.948 23.1639 178.367 22.3198 177.851C21.4958 177.348 21.4385 176.625 21.7915 175.844C22.0607 175.248 22.3672 174.651 22.7591 174.131C24.6439 171.629 27.1085 169.892 30.1316 169.082C31.5904 168.691 31.7139 168.013 31.1482 166.838C30.6175 165.736 30.3257 164.497 30.6112 163.356C30.9025 162.192 30.5182 161.745 29.5403 161.416C28.9136 161.206 28.3047 160.934 27.7056 160.652C26.7351 160.196 26.0814 160.404 25.5224 161.37C24.4153 163.283 23.4623 165.262 22.6478 167.31C20.1628 173.56 18.6694 179.906 20.8173 186.59C21.8233 189.721 23.4907 192.372 26.6105 194.226ZM186.868 181.312C186.8 174.039 184.17 167.586 180.461 161.479C180.073 160.84 179.62 160.267 178.746 160.521C177.543 160.871 176.339 161.231 175.166 162.12C176.699 163.649 176.132 165.385 175.689 166.989C175.293 168.42 175.885 168.805 177.065 169.132C179.871 169.91 182.106 171.57 183.937 173.796C184.505 174.486 184.913 175.255 185.099 176.138C185.231 176.769 184.933 177.203 184.482 177.565C184 177.951 183.53 177.758 183.12 177.444C182.595 177.043 182.102 176.601 181.605 176.165C179.603 174.41 177.346 173.131 174.809 172.273C174.192 173.408 174.161 174.469 173.883 175.459C173.705 176.093 174.077 176.322 174.536 176.602C177.219 178.242 177.202 179.952 174.525 181.663C172.732 182.809 170.735 183.394 168.686 183.861C167.434 184.147 166.239 184.531 165.492 185.712C163.538 188.802 164.74 193.667 168.002 195.349C172.101 197.462 176.192 196.885 180.011 194.687C185 191.816 186.856 187.162 186.868 181.312ZM70.0458 232.259C72.141 234.449 74.4922 236.038 77.6569 236.447C81.5809 236.954 84.9583 236.316 87.6385 233.184C88.8782 231.735 89.643 230.05 90.4894 228.383C91.1182 227.145 90.9175 226.53 89.5247 226.145C86.5052 225.309 83.4809 224.463 80.5257 223.431C75.6035 221.711 70.4433 220.755 65.6114 218.742C64.9444 218.464 64.1495 218.027 63.2492 218.336C64.5197 223.446 66.8856 227.919 70.0458 232.259ZM132.495 164.21C132.204 161.376 130.792 159.489 127.895 158.933C126.709 158.705 125.497 158.472 124.298 158.473C110.832 158.482 97.3661 158.508 83.9009 158.609C81.827 158.624 79.6846 158.591 77.7384 159.601C76.1908 160.405 74.664 162.921 74.8835 164.512C75.1298 166.299 76.8812 165.412 77.817 166.033C78.4256 166.437 79.1073 166.167 79.4375 165.412C80.1374 163.814 81.5054 163.4 83.0892 163.361C84.5777 163.325 86.0661 163.252 87.5546 163.25C100.091 163.234 112.628 163.225 125.165 163.23C126.475 163.231 127.695 163.525 128.473 164.737C129.488 166.319 131.58 166.164 132.495 164.21ZM133.465 234.455C138.536 230.418 140.522 224.637 142.845 218.548C141.571 218.94 140.783 219.171 140.002 219.424C135.236 220.966 130.472 222.516 125.706 224.057C122.93 224.954 120.149 225.833 117.375 226.737C116.664 226.969 115.965 227.27 116.381 228.247C117.265 230.32 118.121 232.439 119.739 234.062C123.109 237.444 128.904 237.643 133.465 234.455ZM182.386 90.4264C182.386 94.1356 182.386 97.8448 182.386 101.544C183.339 101.423 183.368 101.411 183.954 101.057C186.537 99.4962 187.905 97.0591 188.451 94.2442C189.465 89.0286 189.456 83.7581 188.452 78.5409C187.794 75.1247 186.916 71.741 183.254 70.0821C182.529 69.7534 181.804 69.3018 181.088 69.7782C180.294 70.3074 180.633 71.1997 180.817 71.9148C182.357 77.8914 182.474 83.9834 182.386 90.4264ZM22.6099 89.739C22.6393 83.6898 23.1103 77.6819 24.2544 71.7323C24.3703 71.1298 24.8391 70.4106 24.1524 69.8913C23.5403 69.4284 22.86 69.8294 22.2653 70.0346C19.2662 71.0697 17.9484 73.5544 17.2332 76.3354C15.6089 82.6509 15.5116 89.027 17.1552 95.3558C17.9644 98.4718 19.822 100.787 23.1838 101.809C22.9402 97.8011 22.4796 93.9422 22.6099 89.739ZM59.3092 153.83C59.3056 155.645 59.3407 157.462 59.2836 159.275C59.2509 160.314 59.6209 160.917 60.6498 161.206C62.9848 161.862 65.3212 162.524 67.619 163.296C68.6537 163.644 69.0754 163.315 69.2247 162.369C69.7123 159.276 70.8981 156.596 73.6381 154.804C73.7449 154.734 73.7501 154.51 73.8895 154.107C69.0856 152.704 64.3774 151.105 59.8551 148.874C59.342 150.623 59.338 152.1 59.3092 153.83ZM146.642 160.533C146.667 156.629 146.794 152.719 146.253 148.594C141.626 150.858 136.935 152.174 131.99 153.898C136.268 155.9 137.583 159.515 138.391 163.428C140.081 162.974 141.525 162.633 142.938 162.19C144.176 161.802 145.562 161.769 146.642 160.533ZM174.547 132.582C174.07 130.898 173.217 129.47 171.79 128.395C171.081 127.861 170.632 127.851 170.042 128.641C168.796 130.308 167.424 131.882 166.091 133.483C165.336 134.391 164.177 134.941 163.568 136.278C167.953 138.47 171.621 141.544 175.195 145.277C175.235 140.81 175.377 136.81 174.547 132.582ZM35.3399 128.754C34.7814 127.814 34.1812 127.715 33.4006 128.56C32.8396 129.168 32.2501 129.734 31.866 130.483C29.6121 134.881 30.4266 139.547 30.6487 144.161C30.6503 144.194 30.7342 144.223 30.9884 144.394C34.2423 141.342 37.7234 138.456 42.0331 136.119C39.3347 133.951 37.4547 131.399 35.3399 128.754ZM175.66 157.822C176.135 157.484 176.898 157.724 177.248 157.017C176.193 154.645 174.129 153.098 172.395 151.281C172.132 151.006 171.77 150.796 171.348 150.987C168.315 152.357 165.405 153.971 163.185 156.473C161.835 157.994 162.455 159.309 164.411 159.668C165.813 159.925 167.256 159.637 168.654 160.035C170.465 160.55 172.17 160.586 173.6 159.005C174.056 158.5 174.815 158.268 175.66 157.822ZM31.8407 152.746C30.8039 154.132 29.7671 155.517 28.6586 156.999C30.2048 157.869 31.6802 158.448 32.8277 159.414C34.0524 160.444 35.2733 160.37 36.6394 160.171C38.1063 159.958 39.5758 159.744 41.0515 159.614C43.2216 159.422 43.6437 158.816 42.992 156.724C42.8644 156.315 42.5748 156.096 42.2749 155.861C40.367 154.367 38.3642 153.011 36.2193 151.878C33.8645 150.635 33.8545 150.653 31.8407 152.746ZM90.879 168.648C89.6852 168.675 88.4914 168.709 87.2961 168.522C92.1673 170.005 97.0683 171.26 101.896 172.75C103.405 173.215 104.727 173.273 106.186 172.828C108.29 172.186 110.423 171.642 112.539 171.038C115.014 170.332 117.483 169.607 119.954 168.89C110.311 169.264 100.733 168.806 90.879 168.648ZM53.6098 151.952C53.662 150.585 53.6944 149.216 53.7706 147.849C53.9224 145.127 53.2706 144.225 50.4726 143.443C49.5515 148.585 49.1469 153.753 49.2391 158.952C50.0779 159.514 51.014 159.25 51.8577 159.476C52.9212 159.761 53.4993 159.42 53.4709 158.158C53.4266 156.182 53.5393 154.203 53.6098 151.952ZM155.809 146.711C155.564 145.606 155.32 144.501 155.014 143.123C153.839 143.951 151.95 143.976 152.093 145.654C152.457 149.924 152.515 154.19 152.539 158.464C152.542 158.887 152.443 159.359 152.993 159.759C153.31 159.759 153.742 159.762 154.174 159.758C156.59 159.736 156.596 159.648 156.658 157.268C156.747 153.8 155.988 150.407 155.809 146.711ZM42.6922 151.538C42.9505 151.648 43.1452 151.55 43.1694 151.294C43.4648 148.177 43.5618 145.038 44.5524 141.686C41.5919 143.575 38.9976 145.246 36.7051 147.707C38.8929 148.794 40.7213 150.09 42.6922 151.538ZM167.463 146.462C165.884 144.742 163.897 143.649 161.592 142.483C162.022 145.746 161.951 148.735 162.653 151.976C164.566 150.274 166.61 149.248 168.418 148.045C168.361 147.299 167.949 146.987 167.463 146.462ZM109.993 231.313C110.073 229.526 109.694 229.122 108.047 229.507C105.169 230.18 102.383 230.338 99.5144 229.242C97.3878 228.429 97.0104 228.841 96.4579 231.601C100.934 231.483 105.369 231.853 109.993 231.313Z" fill="url(#paint0_linear_1651_7695)"></path>
<path d="M0.865064 35.1295C1.67322 34.3791 2.60436 34.2061 3.50252 33.951C5.31103 33.4374 6.41429 32.2317 6.86796 30.4422C7.17799 29.2192 7.39233 27.9721 7.70615 26.7503C7.97822 25.691 8.44573 24.7984 9.76085 24.7328C11.0157 24.6702 11.7118 25.3267 12.125 26.4028C12.3834 27.0758 12.4727 27.7774 12.526 28.4978C12.7451 31.4607 14.2801 33.3751 17.1835 34.166C17.6077 34.2816 18.0465 34.3812 18.4385 34.5704C20.0279 35.3375 20.1729 36.9057 18.7811 37.9787C18.1528 38.463 17.4306 38.6892 16.668 38.8657C14.1741 39.4432 12.7765 40.9811 12.5202 43.5567C12.4448 44.3136 12.2656 45.0885 11.9731 45.7885C11.6275 46.6153 11.0495 47.349 10.029 47.3539C8.96561 47.359 8.31113 46.7415 7.94698 45.7651C7.59892 44.8319 7.38042 43.8814 7.24976 42.8901C6.9536 40.643 5.83705 39.4797 3.63966 38.9375C3.00027 38.7797 2.35084 38.6167 1.75108 38.3541C0.178641 37.6654 -0.07019 36.7997 0.865064 35.1295ZM7.86803 36.4398C8.54254 37.1238 9.21705 37.8077 9.94192 38.5427C10.7088 37.703 11.3886 36.9588 12.1231 36.1545C11.4216 35.4144 10.7619 34.7184 10.2838 34.2141C9.4194 34.9386 8.63151 35.599 7.86803 36.4398Z" fill="url(#paint1_linear_1651_7695)"></path>
<path d="M175.93 17.5157C176.644 16.192 177.216 14.9688 177.263 13.5316C177.284 12.9033 177.546 12.2267 177.874 11.6754C178.79 10.1328 180.531 10.1929 181.422 11.7562C181.806 12.4313 181.99 13.1568 182.08 13.9434C182.344 16.2519 183.124 18.1991 185.728 18.8385C186.86 19.1164 188.094 19.5264 187.959 21.0408C187.823 22.5694 186.652 23.0757 185.306 23.2955C183.594 23.5749 182.573 24.6059 182.146 26.2436C181.967 26.9327 181.897 27.6521 181.692 28.3325C181.417 29.2461 180.833 29.8422 179.796 29.8843C178.781 29.9256 178.103 29.451 177.723 28.5559C177.532 28.1037 177.38 27.6182 177.312 27.1336C176.989 24.8466 175.806 23.4745 173.423 23.1102C172.342 22.9447 171.46 22.25 171.34 21.0529C171.209 19.7377 172.269 19.29 173.227 18.8555C174.113 18.4543 175.218 18.527 175.93 17.5157ZM179.213 21.9733C180.169 22.5699 180.429 21.5579 180.603 21.1599C180.947 20.3762 180.254 19.9547 179.677 19.5802C178.442 20.712 178.442 20.712 179.213 21.9733Z" fill="url(#paint2_linear_1651_7695)"></path>
<path d="M194.914 33.2262C195.051 35.2286 195.719 36.6057 197.801 37.0336C198.862 37.2517 199.745 37.9227 199.75 39.1857C199.754 40.4451 198.875 41.1813 197.825 41.3531C195.702 41.7003 194.836 42.9428 194.663 44.9204C194.552 46.1792 193.851 46.9948 192.572 47.0809C191.226 47.1715 190.454 46.2139 190.296 45.0967C189.987 42.9036 189.1 41.5764 186.698 41.3631C185.661 41.2711 185.013 40.2862 184.942 39.2127C184.871 38.1339 185.636 37.31 186.533 37.1343C189.079 36.6353 189.827 34.9235 190.182 32.6766C190.457 30.9371 192.643 30.3444 193.948 31.5619C194.4 31.9834 194.687 32.5184 194.914 33.2262ZM193.274 38.8326C193.182 38.2989 192.812 38.0387 192.324 37.8461C191.986 38.3202 191.001 38.5354 191.792 39.372C192.482 40.1014 192.805 39.4083 193.274 38.8326Z" fill="url(#paint3_linear_1651_7695)"></path>
<path d="M141.245 139.31C134.856 142.351 128.18 144.14 121.419 145.488C113.355 147.094 105.168 147.586 96.9339 147.147C92.088 146.888 87.2534 146.458 82.5091 145.501C75.6492 144.116 68.9941 142.002 62.6286 139.056C53.5755 134.866 46.1849 128.559 40.3428 120.635C35.6658 114.291 32.6646 107.072 31.5869 99.1627C30.6389 92.205 30.9491 85.2922 31.7639 78.3315C33.0163 67.6321 37.1254 58.198 43.912 49.9295C49.2236 43.458 55.6428 38.2385 62.9036 33.9942C71.5141 28.9609 80.8368 26.0295 90.611 24.5268C97.6755 23.4408 104.79 23.6248 111.903 24.5583C118.446 25.4171 124.819 26.8826 131.023 29.0837C136.88 31.1617 142.261 34.1493 147.321 37.7314C152.988 41.7433 157.962 46.4757 162.1 52.0378C168.349 60.4385 172.441 69.7464 173.769 80.1844C174.393 85.0972 174.675 90.033 174.195 94.9585C173.169 105.481 169.595 115.001 162.653 123.152C157.745 128.914 152.093 133.765 145.403 137.366C144.095 138.07 142.712 138.636 141.245 139.31ZM122.26 51.4289C112.719 49.2673 103.08 48.3956 93.3165 49.3466C88.1491 49.8499 83.02 50.5953 78.0164 52.0433C77.2004 52.2794 76.7042 52.2171 75.5679 52.6212C71.5906 54.0358 60.5111 59.3092 56.8179 61.9573C49.7156 67.0497 49.0938 68.5057 42.5597 75.2956C44.3732 73.0915 41.4233 76.4764 42.5597 75.2956C39.0642 79.5438 37.1769 84.1116 37.2531 89.757C37.3613 97.7704 38.8482 105.355 42.747 112.352C48.5617 122.788 57.2513 129.967 68.344 134.435C78.4533 138.507 88.9751 140.392 99.8042 140.737C107.55 140.984 115.198 140.214 122.806 138.587C130.004 137.047 136.781 134.536 143.257 131.147C148.192 128.564 152.431 125.059 156.138 120.932C158.678 118.105 161.164 115.194 162.842 111.766C165.314 106.713 167.167 101.449 167.717 95.7863C168.053 92.3239 167.907 88.8658 167.863 85.4054C167.857 84.9432 167.575 84.4622 167.348 84.0286C163.171 76.0832 157.062 69.772 150.013 64.39C141.819 58.133 132.572 53.923 122.26 51.4289ZM100.114 30.3279C93.2861 30.4868 86.5714 31.4989 80.0489 33.4583C69.4438 36.6443 60.1875 42.1758 52.3791 50.0246C47.5975 54.8308 43.9357 60.4032 41.0574 66.9878C44.3382 63.3798 47.662 60.423 51.2699 57.8142C64.6456 48.1427 79.9009 43.7556 96.1491 42.6969C107.814 41.9369 119.281 43.5826 130.447 47.1573C142.837 51.1238 153.605 57.6419 162.537 67.1112C162.984 67.5845 163.376 68.1868 164.313 68.4794C163.928 67.5708 163.685 66.9006 163.369 66.2671C159.62 58.7664 154.807 52.1157 148.312 46.6623C141.156 40.6538 133.111 36.4827 124.18 33.7754C116.387 31.4131 108.448 30.3779 100.114 30.3279Z" fill="url(#paint4_linear_1651_7695)"></path>
<path d="M146.024 25.9245C151.116 28.7479 155.661 32.1077 159.776 36.044C162.518 38.668 165.172 41.3716 167.21 44.6033C167.357 44.8354 167.528 45.0535 167.661 45.2928C168.524 46.8457 168.332 48.4573 167.213 49.1338C166.168 49.7651 164.766 49.2382 163.69 47.9139C157.994 40.9 151.314 34.9769 143.687 30.1108C143.177 29.785 142.62 29.5061 142.179 29.1029C141.382 28.3735 140.686 27.5239 141.356 26.3702C142.042 25.1872 143.107 24.7238 144.444 25.1347C144.961 25.2937 145.428 25.6179 146.024 25.9245Z" fill="url(#paint5_linear_1651_7695)"></path>
<path d="M47.2659 35.6211C48.6818 33.0012 51.1492 31.6107 53.1957 29.8083C54.5901 28.5801 56.115 27.4675 57.8158 26.652C58.8133 26.1738 59.7423 26.3643 60.5958 27.0209C61.2957 27.5594 61.3586 28.2962 61.2696 29.1008C61.2023 29.7091 60.8491 30.1249 60.3901 30.4319C57.0086 32.6933 53.7532 35.1149 50.7066 37.8129C49.9838 38.4531 49.1499 38.5659 48.2574 38.0851C47.2906 37.5644 46.9686 36.7875 47.2659 35.6211Z" fill="url(#paint6_linear_1651_7695)"></path>
<path d="M90.0473 16.1289C91.0922 15.8171 92.021 15.7554 92.9615 15.8554C94.1449 15.9813 94.9563 16.6199 95.0865 17.7925C95.216 18.9598 94.5755 19.8726 93.4588 20.1675C92.1382 20.5163 90.7622 20.7223 89.398 20.8195C88.3944 20.891 87.5776 20.3294 87.2141 19.3613C86.8306 18.3399 87.3692 17.5575 88.0992 16.9087C88.6053 16.459 89.2582 16.2943 90.0473 16.1289Z" fill="url(#paint7_linear_1651_7695)"></path>
<path d="M43.8339 39.0779C45.3213 39.7055 45.8565 40.6527 45.265 42.1099C44.5162 43.9546 42.7666 45.337 41.3867 45.1456C40.2811 44.9922 39.4733 43.7477 39.9526 42.6607C40.6955 40.9756 41.826 39.5954 43.8339 39.0779Z" fill="url(#paint8_linear_1651_7695)"></path>
<path d="M103.01 17.3102C103.092 18.634 102.399 19.2984 101.346 19.5324C100.233 19.7796 99.142 19.644 98.3623 18.6522C97.8034 17.9411 97.9932 17.1773 98.3624 16.4906C98.7972 15.6816 99.5753 15.4888 100.468 15.5082C101.689 15.5349 102.61 15.9284 103.01 17.3102Z" fill="url(#paint9_linear_1651_7695)"></path>
</g>
<defs>
<linearGradient id="paint0_linear_1651_7695" x1="102.55" y1="0.203308" x2="102.55" y2="244.454" gradientUnits="userSpaceOnUse">
<stop stop-color="#696B87"></stop>
<stop offset="0.96" stop-color="#696B87"></stop>
<stop offset="1" stop-color="#BBA0A7"></stop>
</linearGradient>
<linearGradient id="paint1_linear_1651_7695" x1="10.0273" y1="24.7287" x2="10.0273" y2="47.3539" gradientUnits="userSpaceOnUse">
<stop stop-color="#696B87"></stop>
<stop offset="0.96" stop-color="#696B87"></stop>
<stop offset="1" stop-color="#BBA0A7"></stop>
</linearGradient>
<linearGradient id="paint2_linear_1651_7695" x1="179.649" y1="10.5505" x2="179.649" y2="29.8868" gradientUnits="userSpaceOnUse">
<stop stop-color="#696B87"></stop>
<stop offset="0.96" stop-color="#696B87"></stop>
<stop offset="1" stop-color="#BBA0A7"></stop>
</linearGradient>
<linearGradient id="paint3_linear_1651_7695" x1="192.344" y1="30.9199" x2="192.344" y2="47.0868" gradientUnits="userSpaceOnUse">
<stop stop-color="#696B87"></stop>
<stop offset="0.96" stop-color="#696B87"></stop>
<stop offset="1" stop-color="#BBA0A7"></stop>
</linearGradient>
<linearGradient id="paint4_linear_1651_7695" x1="102.719" y1="23.7831" x2="102.719" y2="147.3" gradientUnits="userSpaceOnUse">
<stop stop-color="#696B87"></stop>
<stop offset="0.96" stop-color="#696B87"></stop>
<stop offset="1" stop-color="#BBA0A7"></stop>
</linearGradient>
<linearGradient id="paint5_linear_1651_7695" x1="154.643" y1="24.9878" x2="154.643" y2="49.3997" gradientUnits="userSpaceOnUse">
<stop stop-color="#696B87"></stop>
<stop offset="0.96" stop-color="#696B87"></stop>
<stop offset="1" stop-color="#BBA0A7"></stop>
</linearGradient>
<linearGradient id="paint6_linear_1651_7695" x1="54.2301" y1="26.3854" x2="54.2301" y2="38.3817" gradientUnits="userSpaceOnUse">
<stop stop-color="#696B87"></stop>
<stop offset="0.96" stop-color="#696B87"></stop>
<stop offset="1" stop-color="#BBA0A7"></stop>
</linearGradient>
<linearGradient id="paint7_linear_1651_7695" x1="91.095" y1="15.8114" x2="91.095" y2="20.8256" gradientUnits="userSpaceOnUse">
<stop stop-color="#696B87"></stop>
<stop offset="0.96" stop-color="#696B87"></stop>
<stop offset="1" stop-color="#BBA0A7"></stop>
</linearGradient>
<linearGradient id="paint8_linear_1651_7695" x1="42.6563" y1="39.0779" x2="42.6563" y2="45.1633" gradientUnits="userSpaceOnUse">
<stop stop-color="#696B87"></stop>
<stop offset="0.96" stop-color="#696B87"></stop>
<stop offset="1" stop-color="#BBA0A7"></stop>
</linearGradient>
<linearGradient id="paint9_linear_1651_7695" x1="100.514" y1="15.5069" x2="100.514" y2="19.6397" gradientUnits="userSpaceOnUse">
<stop stop-color="#696B87"></stop>
<stop offset="0.96" stop-color="#696B87"></stop>
<stop offset="1" stop-color="#BBA0A7"></stop>
</linearGradient>
<clipPath id="clip0_1651_7695">
<rect width="200" height="245" fill="white"></rect>
</clipPath>
</defs>
</svg></svg></g></svg>